<svg width="20" height="20" viewBox="0 0 20 20" fill="none" xmlns="http://www.w3.org/2000/svg">
<g clip-path="url(#clip0_123_6830)">
<path d="M12.959 10.8333C13.584 10.8333 14.134 10.4916 14.4173 9.97496L17.4007 4.56663C17.709 4.01663 17.309 3.33329 16.6757 3.33329H4.34232L3.55898 1.66663H0.833984V3.33329H2.50065L5.50065 9.65829L4.37565 11.6916C3.76732 12.8083 4.56732 14.1666 5.83398 14.1666H15.834V12.5H5.83398L6.75065 10.8333H12.959ZM5.13398 4.99996H15.259L12.959 9.16663H7.10898L5.13398 4.99996ZM5.83398 15C4.91732 15 4.17565 15.75 4.17565 16.6666C4.17565 17.5833 4.91732 18.3333 5.83398 18.3333C6.75065 18.3333 7.50065 17.5833 7.50065 16.6666C7.50065 15.75 6.75065 15 5.83398 15ZM14.1673 15C13.2507 15 12.509 15.75 12.509 16.6666C12.509 17.5833 13.2507 18.3333 14.1673 18.3333C15.084 18.3333 15.834 17.5833 15.834 16.6666C15.834 15.75 15.084 15 14.1673 15Z" fill="#2D2D2D" fill-opacity="0.6"/>
</g>
<defs>
<clipPath id="clip0_123_6830">
<rect width="20" height="20" fill="white"/>
</clipPath>
</defs>
</svg>
