<svg width="29" height="21" viewBox="0 0 29 21" fill="none" xmlns="http://www.w3.org/2000/svg">
<path d="M28.0156 9.3961L26.0408 8.54146L24.3639 5.27828C23.9107 4.38479 22.9913 3.82798 21.9878 3.83446H19.1001V3.01866C19.1001 1.54246 17.9218 0.338196 16.4456 0.338196H2.64179C1.16559 0.338196 0.000172274 1.54894 0.000172274 3.01866V15.5146C-0.0127768 16.4145 0.705899 17.1526 1.60586 17.1656C1.61234 17.1656 1.61881 17.1656 1.63176 17.1656H1.97491C1.97491 17.2303 1.96844 17.2562 1.96844 17.2951C1.96196 19.1468 3.45759 20.6554 5.30931 20.6618C7.16103 20.6683 8.66961 19.1727 8.67608 17.321C8.67608 17.308 8.67608 17.3015 8.67608 17.2886C8.67608 17.2433 8.67608 17.2238 8.66961 17.1591H19.8253C19.8253 17.2238 19.8253 17.2497 19.8253 17.2886C19.8188 19.1403 21.3144 20.6489 23.1661 20.6554C25.0179 20.6618 26.5264 19.1662 26.5329 17.3145C26.5329 17.3015 26.5329 17.2951 26.5329 17.2821C26.5329 17.2368 26.5329 17.2174 26.5329 17.1526H27.3681C28.2681 17.1526 28.9997 16.421 28.9997 15.521C28.9997 15.5146 28.9997 15.5081 28.9997 15.4951V10.8982C29.0127 10.2637 28.6242 9.66156 28.0156 9.3961ZM5.32873 19.3734C4.18921 19.3734 3.26982 18.454 3.26982 17.3145C3.26982 16.175 4.18921 15.2556 5.32873 15.2556C6.46826 15.2556 7.38764 16.175 7.38764 17.3145C7.38764 18.4475 6.46178 19.3734 5.32873 19.3734ZM17.8052 15.8836H8.3653C7.82144 14.6988 6.63012 13.9412 5.32873 13.9477C4.02087 13.9412 2.83603 14.6923 2.29217 15.8836H1.63176C1.43105 15.8836 1.29508 15.7282 1.29508 15.5275V12.1931H17.8052V15.8836ZM17.8052 3.02514V10.8982H1.29508V3.02514C1.29508 2.26761 1.88427 1.63958 2.64179 1.63958H16.4456C17.2031 1.64606 17.8117 2.26761 17.8052 3.01866V3.02514ZM19.1001 5.13584H21.9878C22.4993 5.12937 22.9784 5.40777 23.2179 5.86747L24.5129 8.37312H19.1001V5.13584V5.13584ZM23.1856 19.3734C22.046 19.3734 21.1267 18.454 21.1267 17.3145C21.1267 16.175 22.046 15.2556 23.1856 15.2556C24.3251 15.2556 25.2445 16.175 25.2445 17.3145C25.2445 18.4475 24.3251 19.3734 23.1856 19.3734ZM27.7113 15.5275C27.7113 15.7282 27.5753 15.8836 27.3746 15.8836H26.2221C25.4387 14.2067 23.4446 13.4815 21.7676 14.265C21.0554 14.5952 20.4792 15.1714 20.149 15.8836H19.1001V9.66803H25.4452L27.5041 10.5745C27.6336 10.6392 27.7178 10.7817 27.7113 10.9241V15.5275Z" fill="#0C7A3E"/>
</svg>
