<svg width="14" height="14" viewBox="0 0 14 14" fill="none" xmlns="http://www.w3.org/2000/svg">
<path d="M6.99081 0C3.95032 0 1.47656 2.47375 1.47656 5.51436C1.47656 6.77751 2.36449 8.54834 4.11577 10.7775C5.39206 12.4022 6.6472 13.6573 6.69997 13.71L6.99081 14L7.28177 13.71C7.33453 13.6573 8.58968 12.4022 9.86607 10.7775C11.6172 8.54834 12.5052 6.77751 12.5052 5.51425C12.5052 2.47375 10.0314 0 6.99081 0V0ZM6.99081 8.54097C5.14169 8.54097 3.63736 7.03664 3.63736 5.18752C3.63736 3.33839 5.14169 1.83395 6.99081 1.83395C8.83994 1.83395 10.3444 3.33839 10.3444 5.18752C10.3444 7.03664 8.83994 8.54097 6.99081 8.54097Z" fill="#16C3C6"/>
</svg>
