<svg width="19" height="19" viewBox="0 0 19 19" fill="none" xmlns="http://www.w3.org/2000/svg">
<path d="M15.1765 5.2951C13.6603 3.77881 11.6442 2.94374 9.49981 2.94374H8.32281L10.2119 1.04997L9.15937 0L5.48012 3.68826L9.11135 7.3802L10.1713 6.33769L8.29539 4.43041H9.49981C13.1068 4.43041 16.0413 7.36487 16.0413 10.9719C16.0413 14.5789 13.1068 17.5133 9.49981 17.5133C5.89285 17.5133 2.95836 14.5788 2.95836 10.9717V10.2284L1.47168 10.2285V10.9719C1.47168 13.1163 2.30675 15.1323 3.82308 16.6486C5.33937 18.1649 7.35544 19 9.49981 19C11.6442 19 13.6603 18.1649 15.1765 16.6486C16.6929 15.1323 17.5279 13.1162 17.5279 10.9719C17.5279 8.8275 16.6929 6.81143 15.1765 5.2951Z" fill="white"/>
</svg>
