<svg width="22" height="24" viewBox="0 0 22 24" fill="none" xmlns="http://www.w3.org/2000/svg">
<path fill-rule="evenodd" clip-rule="evenodd" d="M18.539 24C16.9916 24 15.7331 22.723 15.7331 21.1571C15.7331 20.7669 15.8156 20.3818 15.9652 20.027H10.8279C10.9826 20.3767 11.06 20.7669 11.06 21.1571C11.06 22.723 9.80148 24 8.2541 24C6.70672 24 5.44818 22.723 5.44818 21.1571C5.44818 20.7416 5.54102 20.326 5.71639 19.9459C4.44754 19.647 3.52427 18.4865 3.52427 17.1436V2.93412L0.517192 1.64696C0.0890827 1.46453 -0.112077 0.962838 0.0632931 0.527027C0.197399 0.20777 0.501718 0 0.8473 0C0.960774 0 1.07425 0.0253378 1.18257 0.0709459L4.71059 1.57601L4.71575 1.58108C4.72091 1.58615 4.73123 1.58615 4.73638 1.59122C4.75186 1.59628 4.76217 1.60642 4.77765 1.61149L4.8086 1.62669L4.81375 1.63176C4.82407 1.64189 4.83954 1.64696 4.84986 1.65709L4.86533 1.66723L4.87565 1.67736C4.88081 1.68243 4.88596 1.6875 4.89628 1.69257C4.90144 1.69764 4.9066 1.69764 4.91175 1.7027C4.93754 1.72297 4.95302 1.73818 4.96333 1.74831L5.04586 1.82939L5.05618 1.84966C5.06133 1.8598 5.07165 1.86993 5.07681 1.88514C5.08197 1.89527 5.08712 1.90034 5.09228 1.91047C5.09228 1.91047 5.09228 1.91047 5.09228 1.91554C5.10776 1.93074 5.11291 1.94595 5.12323 1.96115C5.12839 1.97128 5.13354 1.98142 5.1387 1.98649C5.15418 2.01182 5.16449 2.03209 5.16965 2.05743L5.17997 2.08784V2.09291L5.2006 2.14865V2.15878V2.16385C5.2006 2.16892 5.20576 2.17905 5.20576 2.18412L5.21607 2.20946V2.22973C5.21607 2.2348 5.21607 2.2348 5.21607 2.23987C5.22123 2.25507 5.22123 2.2652 5.22123 2.27534C5.22639 2.31081 5.22639 2.34122 5.22639 2.37162V4.49493L21.2676 6.74493C21.2779 6.74493 21.2882 6.75 21.2985 6.75C21.314 6.75 21.3295 6.75507 21.3501 6.76014H21.3553C21.3862 6.7652 21.412 6.77534 21.4326 6.78041C21.4429 6.78547 21.4636 6.79054 21.479 6.80068L21.5925 6.85642L21.6028 6.86655C21.6132 6.87162 21.6183 6.87669 21.6235 6.88176C21.6389 6.89189 21.6493 6.89696 21.6596 6.9071C21.6699 6.91216 21.6802 6.9223 21.6905 6.93243L21.7008 6.9375L21.7421 6.97804C21.7524 6.98818 21.7731 7.00338 21.7885 7.02872C21.7937 7.03378 21.7988 7.04392 21.8092 7.05405C21.8143 7.05912 21.8195 7.06419 21.8195 7.06926C21.8298 7.07939 21.8453 7.09966 21.8556 7.11993C21.8607 7.13007 21.8711 7.1402 21.8762 7.15541L21.8814 7.16554C21.8865 7.17061 21.8917 7.18074 21.8968 7.19088L21.902 7.20101C21.9123 7.21622 21.9175 7.23142 21.9226 7.24156L21.9278 7.25676L21.9329 7.27196C21.9329 7.27703 21.9329 7.27703 21.9381 7.27703C21.9484 7.2973 21.9536 7.31757 21.9536 7.3277C21.9587 7.33784 21.9587 7.34291 21.9639 7.35304L21.9691 7.36824C21.9691 7.37838 21.9742 7.38345 21.9742 7.38851L21.9845 7.41385V7.43919C21.9845 7.44933 21.9897 7.45439 21.9897 7.4696C21.9897 7.47466 21.9897 7.47466 21.9897 7.47973C22 7.51014 22 7.54054 22 7.55068V13.0794C22 14.6655 20.726 15.9578 19.158 15.9578H6.36113C5.96397 15.9578 5.57713 15.8767 5.22123 15.7196V17.1436C5.22123 17.7872 5.73187 18.3091 6.36113 18.3091H18.539C20.0864 18.3091 21.3449 19.5861 21.3449 21.152C21.3449 22.723 20.0864 24 18.539 24ZM18.539 20.0169C17.9252 20.0169 17.4301 20.5236 17.4301 21.147C17.4301 21.7703 17.9252 22.277 18.539 22.277C19.1528 22.277 19.648 21.7703 19.648 21.147C19.648 20.5236 19.1528 20.0169 18.539 20.0169ZM8.2541 20.0169C7.6403 20.0169 7.14514 20.5236 7.14514 21.147C7.14514 21.7703 7.6403 22.277 8.2541 22.277C8.86789 22.277 9.36305 21.7703 9.36305 21.147C9.36305 20.5236 8.86789 20.0169 8.2541 20.0169ZM5.21607 13.0642C5.21607 13.7078 5.72671 14.2297 6.35598 14.2297H19.158C19.7872 14.2297 20.2979 13.7027 20.2979 13.0591V8.33108L5.21091 6.22297V13.0642H5.21607Z" fill="black"/>
</svg>
