<svg width="24" height="23" viewBox="0 0 24 23" fill="none" xmlns="http://www.w3.org/2000/svg">
<path fill-rule="evenodd" clip-rule="evenodd" d="M24 20.3579V22.8837H22.0361V20.3579C22.0361 17.568 19.7894 15.3063 17.018 15.3063H6.98196C4.21057 15.3063 1.96392 17.568 1.96392 20.3579V22.8837H0V20.3579C0 16.3965 3.17527 13.2762 6.98196 13.2762H17.018C20.8247 13.2762 24 16.3965 24 20.3579Z" fill="#0C7A3E"/>
<path fill-rule="evenodd" clip-rule="evenodd" d="M18.6672 7.05325C18.6672 10.7176 15.6354 13.6038 12.0006 13.6038C8.36585 13.6038 5.33398 10.7176 5.33398 7.05325C5.33398 3.38891 8.36585 0.502686 12.0006 0.502686C15.6354 0.502686 18.6672 3.38891 18.6672 7.05325ZM16.792 7.05325C16.792 9.63392 14.6468 11.726 12.0006 11.726C9.35439 11.726 7.2092 9.63392 7.2092 7.05325C7.2092 4.47257 9.35439 2.38052 12.0006 2.38052C14.6468 2.38052 16.792 4.47257 16.792 7.05325Z" fill="#0C7A3E"/>
</svg>
