<svg width="166" height="101" viewBox="0 0 166 101" fill="none" xmlns="http://www.w3.org/2000/svg">
<g clip-path="url(#clip0)">
<path d="M140.686 0.183905C140.747 0.214558 140.793 0.24521 140.854 0.260537C141.376 0.352494 141.744 0.674345 142.02 1.08815C142.527 1.82381 143.033 2.5748 143.539 3.31046C145.81 6.62093 148.096 9.94673 150.366 13.2572C150.443 13.3645 150.535 13.4564 150.566 13.6404C150.136 13.5024 149.737 13.3798 149.323 13.2419C147.804 12.7514 146.301 12.2457 144.751 11.8319C143.8 11.5713 142.88 11.6479 141.99 12.0311C141.223 12.3529 140.502 12.7361 139.78 13.1193C139.09 13.4871 138.384 13.8243 137.648 14.1001C136.375 14.5753 135.73 15.5102 135.577 16.8435C135.469 17.8551 135.347 18.8666 135.255 19.8781C135.163 20.7824 135.147 21.6866 135.239 22.5909C135.316 23.3112 135.638 23.9549 136.022 24.5526C136.405 25.181 136.866 25.7481 137.31 26.3458C140.026 29.8709 142.818 33.3499 145.549 36.8596C145.81 37.1815 146.055 37.5187 146.316 37.8405C146.915 38.5455 147.298 38.5608 147.973 37.9478C148.326 37.6106 148.694 37.2734 149.093 36.9822C149.323 36.8136 149.553 36.6604 149.814 36.5531C151.563 35.7868 152.637 34.4534 153.159 32.6449C153.419 31.7253 153.558 30.7751 153.65 29.8249C153.788 28.4455 153.987 27.0815 154.202 25.7174C154.478 23.9089 154.785 22.0851 155.076 20.2766C155.076 20.246 155.107 20.2153 155.122 20.154C155.245 20.1847 155.291 20.2919 155.337 20.3839C157.47 23.4492 159.587 26.4991 161.719 29.5643C162.425 30.5759 163.116 31.5721 163.821 32.5836C164.082 32.9668 164.082 32.8595 163.806 33.1967C161.06 36.4918 158.206 39.6643 155.337 42.8522C152.545 45.9481 149.783 49.0746 147.068 52.2318C146.715 52.6457 146.531 53.1208 146.485 53.6572C146.424 54.3775 146.516 55.0672 146.592 55.7875C146.761 55.8029 146.822 55.6649 146.915 55.573C148.065 54.3009 149.2 53.0135 150.351 51.7261C155.199 46.2853 160.063 40.8291 164.911 35.3883C164.941 35.3577 164.972 35.3117 165.003 35.281C165.294 34.9592 165.294 34.9592 165.601 35.2504C166.046 35.6642 166.107 36.1546 165.754 36.6604C165.402 37.1815 164.957 37.6566 164.558 38.147C159.633 44.1702 154.708 50.1781 149.783 56.2014C146.961 59.6498 144.138 63.1288 141.238 66.5159C141.115 66.6539 141.023 66.8071 140.87 66.9144C140.732 66.8531 140.67 66.7152 140.594 66.6232C136.605 61.4123 132.6 56.2167 128.612 51.0058C122.751 43.3426 116.906 35.7102 111.045 28.093C107.992 24.1235 104.954 20.154 101.917 16.1845C101.548 15.7094 101.61 15.7401 101.226 16.1692C94.5371 23.679 87.8326 31.1736 81.1435 38.6834C80.6833 39.1892 80.223 39.7103 79.7781 40.2007C79.6554 40.1854 79.6247 40.0935 79.5787 40.0322C79.0417 39.2505 78.5047 38.4842 77.9831 37.6872C77.753 37.3501 77.7683 37.442 78.0291 37.1355C80.3304 34.576 82.6471 32.0165 84.9637 29.4724C89.2134 24.7825 93.3711 20.0007 97.5594 15.2649C98.5567 14.1308 99.5692 13.012 100.582 11.9085C101.487 10.9123 102.607 10.2533 103.896 9.90075C112.18 7.66312 120.465 5.45614 128.765 3.26448C132.386 2.29893 136.006 1.33337 139.642 0.36782C139.919 0.291189 140.195 0.229884 140.456 0.168579C140.548 0.183905 140.624 0.183905 140.686 0.183905ZM145.58 55.527C145.595 55.2358 145.518 54.8986 145.396 54.5614C145.304 54.3162 145.273 54.3009 145.058 54.4542C144.598 54.8067 144.122 55.1285 143.616 55.4044C141.56 56.5232 139.474 56.6305 137.341 55.6036C137.188 55.527 137.034 55.4504 136.881 55.3584C136.758 55.2971 136.697 55.3431 136.666 55.4504C136.589 55.6496 136.651 55.8182 136.789 55.9868C137.633 56.9523 138.492 57.8719 139.136 58.9907C139.412 59.4658 139.873 59.7264 140.425 59.803C140.916 59.8797 141.407 59.849 141.882 59.7264C143.263 59.3739 144.322 58.5463 145.058 57.3355C145.38 56.8144 145.58 56.232 145.58 55.527Z" fill="#0C7A3E"/>
<path d="M153.91 16.1538C153.834 16.7362 153.757 17.3033 153.68 17.8704C153.496 19.2191 153.312 20.5678 153.113 21.9012C152.882 23.4491 152.668 24.9971 152.422 26.5604C152.192 28.047 151.947 29.5336 151.716 31.0203C151.655 31.4034 151.594 31.7866 151.502 32.1698C151.364 32.7522 151.072 33.2273 150.612 33.6104C149.446 34.5607 148.234 35.4189 147.037 36.3232C146.853 36.4611 146.838 36.4611 146.669 36.2465C145.902 35.2044 145.135 34.1468 144.383 33.0893C143.125 31.3421 141.867 29.6103 140.44 28.001C140.103 27.6179 139.734 27.25 139.397 26.8669C137.97 25.2883 137.188 23.4491 137.019 21.3341C136.881 19.6635 137.065 18.039 137.402 16.4144C137.418 16.3531 137.433 16.2918 137.448 16.2305C137.525 15.9852 137.54 15.9699 137.786 16.0312C138.354 16.1692 138.921 16.3224 139.489 16.4757C142.051 17.1347 144.628 17.7784 147.16 18.5294C148.556 18.9432 149.845 18.7133 151.026 17.855C151.901 17.2113 152.867 16.7362 153.788 16.1845C153.803 16.1538 153.849 16.1538 153.91 16.1538Z" fill="#0C7A3E"/>
<path d="M103.405 36.1086C103.528 36.0779 103.62 36.1392 103.727 36.1699C104.939 36.5684 106.151 36.9668 107.348 37.3653C107.685 37.4726 107.701 37.396 107.67 37.8558C107.593 38.8213 107.517 39.7869 107.44 40.7524C107.44 40.8137 107.425 40.875 107.409 40.9363C107.394 41.1049 107.332 41.1816 107.148 41.1203C106.289 40.8597 105.399 40.6298 104.571 40.2773C103.712 39.9095 103.282 39.2658 103.282 38.3309C103.282 37.6565 103.282 36.9822 103.344 36.3078C103.359 36.2465 103.359 36.1699 103.405 36.1086Z" fill="#0C7A3E"/>
<path d="M107.041 46.699C106.979 46.7297 106.918 46.699 106.872 46.6684C106.044 46.3618 105.215 46.0553 104.387 45.7335C104.187 45.6568 103.972 45.5649 103.788 45.4729C103.389 45.2737 103.175 44.9518 103.175 44.5074C103.159 43.5571 103.251 42.6069 103.297 41.6567C103.435 41.626 103.543 41.6873 103.635 41.718C104.693 42.0858 105.737 42.4536 106.795 42.8061C106.979 42.8674 107.102 42.9441 107.102 43.1893C107.087 44.2928 107.102 45.3963 107.087 46.4998C107.087 46.5611 107.102 46.6377 107.041 46.699Z" fill="#0C7A3E"/>
<path d="M97.4213 34.009C97.4827 33.9783 97.544 34.009 97.6054 34.0243C98.4646 34.3308 99.339 34.622 100.183 35.0052C100.444 35.1278 100.704 35.2657 100.95 35.4496C101.395 35.7715 101.61 36.2159 101.64 36.7677C101.671 37.4267 101.579 38.0857 101.502 38.7448C101.487 38.8674 101.456 38.9287 101.318 38.8827C100.413 38.6375 99.5078 38.4229 98.664 38.0091C97.9583 37.6719 97.6208 37.0742 97.498 36.3386C97.3906 35.6029 97.3906 34.8519 97.3906 34.1009C97.3906 34.0703 97.406 34.0396 97.4213 34.009Z" fill="#0C7A3E"/>
<path d="M97.7128 40.2622C97.6974 39.5112 97.6974 39.5112 98.3571 39.7257C99.0475 39.9556 99.7226 40.1702 100.413 40.4001C100.536 40.4461 100.674 40.4921 100.797 40.538C101.456 40.8292 101.656 41.1051 101.64 41.8408C101.625 42.3465 101.579 42.837 101.548 43.3427C101.533 43.6033 101.502 43.8485 101.502 44.109C101.502 44.2623 101.426 44.3083 101.287 44.2776C100.505 44.0477 99.7072 43.8638 98.9708 43.4807C98.3264 43.1435 97.9889 42.5917 97.8662 41.8867C97.7588 41.335 97.7281 40.7833 97.7128 40.2622Z" fill="#0C7A3E"/>
<path d="M47.6064 101.031C47.6064 100.203 47.6218 99.3906 47.6218 98.563C47.6218 96.6472 47.6218 94.7315 47.6218 92.831C47.6218 92.7544 47.6218 92.6777 47.6218 92.6164C47.6218 92.2946 47.6218 92.2946 47.944 92.2946C48.2815 92.2946 48.6344 92.2793 48.9719 92.2946C49.1867 92.3099 49.3401 92.2179 49.4782 92.0647C50.2759 91.1145 50.7822 90.0263 51.0737 88.8308C51.3345 87.7733 51.4419 86.6852 51.5186 85.597C51.6414 83.6965 51.58 81.7961 51.5954 79.8956C51.5954 77.9339 51.5954 75.9721 51.5954 74.0104C51.5954 73.5812 51.5647 73.6119 51.9942 73.6119C57.0724 73.6119 62.1506 73.6119 67.2288 73.6119C67.2748 73.6119 67.3209 73.6119 67.3822 73.6119C67.551 73.5965 67.643 73.6579 67.6277 73.8418C67.6124 73.9491 67.6277 74.0563 67.6277 74.1789C67.6277 80.0336 67.6277 85.9035 67.6277 91.7582C67.6277 92.3712 67.5663 92.2946 68.18 92.3099C68.5789 92.3099 68.9625 92.3099 69.3614 92.3099C69.5455 92.3099 69.6222 92.3712 69.6222 92.5704C69.6068 92.831 69.6222 93.0915 69.6222 93.3368C69.6222 95.7736 69.6222 98.2105 69.6222 100.663C69.6222 100.801 69.6375 100.939 69.6375 101.061C68.3181 101.061 66.9833 101.061 65.6639 101.061C65.6639 100.923 65.6793 100.785 65.6793 100.663C65.6793 99.2374 65.6793 97.812 65.6793 96.402C65.6793 95.9422 65.7406 95.9269 65.1883 95.9269C60.8159 95.9269 56.4281 95.9269 52.0556 95.9269C51.9636 95.9269 51.8869 95.9269 51.7948 95.9269C51.6414 95.9269 51.5647 95.9882 51.5647 96.1415C51.5647 96.2334 51.5647 96.3101 51.5647 96.402C51.5647 97.8274 51.5647 99.2527 51.5647 100.663C51.5647 100.801 51.58 100.939 51.58 101.061C50.2606 101.031 48.9412 101.031 47.6064 101.031ZM53.866 92.2792C53.9734 92.2792 54.0654 92.2946 54.1575 92.2946C57.1031 92.2946 60.0488 92.2946 62.9944 92.2946C63.378 92.2946 63.3933 92.2946 63.3933 91.8808C63.3933 87.145 63.3933 82.3938 63.3933 77.658C63.3933 77.2135 63.3933 77.2135 62.9484 77.2135C60.7085 77.2135 58.4532 77.2135 56.2133 77.2135C56.1366 77.2135 56.0599 77.2135 55.9985 77.2135C55.8297 77.2135 55.753 77.2902 55.7684 77.4588C55.7684 77.5354 55.7684 77.612 55.7684 77.6733C55.753 79.8956 55.7991 82.1333 55.7377 84.3556C55.6917 85.7962 55.5996 87.2369 55.3388 88.6623C55.1087 89.873 54.7098 91.0225 53.958 92.034C53.8967 92.0953 53.8353 92.1413 53.866 92.2792Z" fill="#0C7A3E"/>
<path d="M0.107422 56.9677C0.260841 56.9677 0.398919 56.983 0.552339 56.983C2.97637 56.983 5.38506 56.983 7.80909 56.983C7.90114 56.983 7.97785 56.983 8.0699 56.983C8.42276 56.983 8.42276 56.983 8.43811 57.3508C8.43811 57.7646 8.43811 58.1784 8.43811 58.6076C8.43811 58.8068 8.3614 58.8834 8.17729 58.8681C8.08524 58.8681 8.00853 58.8681 7.91648 58.8681C6.25955 58.8681 4.60262 58.8681 2.94568 58.8681C2.83829 58.8681 2.7309 58.8681 2.60816 58.8681C2.50077 58.8681 2.45474 58.9141 2.4394 59.0214C2.4394 59.0827 2.4394 59.144 2.4394 59.2053C2.4394 59.9869 2.4394 60.7686 2.4394 61.5655C2.4394 61.9334 2.4394 61.9334 2.80761 61.9334C3.9736 61.9334 5.13959 61.9334 6.30557 61.9334C6.78117 61.9334 7.25678 62.01 7.71703 62.1786C8.5455 62.4698 9.11315 63.0368 9.35862 63.8798C9.63478 64.8453 9.65012 65.8262 9.32794 66.7765C8.94439 67.9719 8.08524 68.6463 6.84254 68.8148C6.58173 68.8455 6.30557 68.8608 6.02942 68.8608C4.20373 68.8608 2.37803 68.8608 0.552339 68.8608C0.414261 68.8608 0.260841 68.8302 0.122764 68.8915C0.107422 64.922 0.107422 60.9372 0.107422 56.9677ZM4.32646 63.7878C3.80483 63.7725 3.29855 63.7725 2.77692 63.7725C2.45474 63.7725 2.45474 63.7725 2.45474 64.0944C2.45474 64.9373 2.45474 65.7803 2.45474 66.6232C2.45474 66.9757 2.45474 66.9757 2.79227 66.9757C3.69744 66.9757 4.60262 66.9757 5.50779 66.9757C5.78395 66.9757 6.07545 66.945 6.3516 66.8837C6.79652 66.7765 7.08801 66.5159 7.21075 66.0714C7.33349 65.6117 7.33349 65.1519 7.24143 64.6921C7.16472 64.2936 6.91925 64.0177 6.50502 63.8951C6.27489 63.8338 6.02942 63.7725 5.78395 63.7725C5.293 63.7878 4.80206 63.7878 4.32646 63.7878Z" fill="#0C7A3E"/>
<path d="M72.4912 84.7388C72.4912 81.2291 72.4912 77.7194 72.4912 74.225C72.4912 74.133 72.4912 74.0257 72.4912 73.9338C72.4912 73.6119 72.5066 73.6119 72.8287 73.6119C74.0254 73.6119 75.2374 73.6119 76.4341 73.6119C78.8888 73.6119 81.3435 73.6119 83.7982 73.6119C84.7648 73.6119 85.7313 73.6886 86.6672 73.9951C87.7258 74.3323 88.631 74.884 89.2293 75.8496C89.5668 76.386 89.7663 76.9684 89.8737 77.5968C90.0884 78.8075 90.0731 80.0183 89.7816 81.2138C89.4134 82.7004 88.5849 83.7732 87.0814 84.2637C87.02 84.279 86.9587 84.2943 86.9127 84.3403C86.8359 84.4016 86.8359 84.4783 86.928 84.5089C87.02 84.5396 87.1121 84.5549 87.2195 84.5855C88.9225 84.9687 89.9504 86.0109 90.3186 87.6968C90.6561 89.2141 90.6101 90.716 90.1345 92.2027C89.4901 94.1951 88.094 95.3446 86.0535 95.7584C85.3478 95.8963 84.642 95.927 83.9363 95.927C80.2849 95.927 76.6182 95.927 72.9668 95.927C72.9361 95.927 72.8901 95.927 72.8594 95.927C72.5066 95.927 72.4912 95.927 72.4912 95.5591C72.4912 93.2295 72.4912 90.9 72.4912 88.5704C72.4912 87.2676 72.4912 86.0109 72.4912 84.7388ZM80.2389 86.1641C79.1803 86.1641 78.1217 86.1641 77.0785 86.1641C76.7103 86.1641 76.7103 86.1641 76.7103 86.532C76.7103 88.3558 76.7103 90.1796 76.7103 92.0034C76.7103 92.3713 76.7103 92.3713 77.0785 92.3713C78.8428 92.3713 80.6071 92.3713 82.3714 92.3713C83.0925 92.3713 83.7982 92.2946 84.4733 92.0647C85.3631 91.7735 85.9154 91.1911 86.1456 90.2716C86.3297 89.5053 86.3143 88.7389 86.1609 87.9726C85.9921 87.0684 85.4552 86.5166 84.55 86.3174C84.0744 86.2101 83.5834 86.1488 83.0925 86.1488C82.1566 86.1641 81.2054 86.1641 80.2389 86.1641ZM80.1162 77.1217C79.1189 77.1217 78.1371 77.1217 77.1398 77.1217C76.6949 77.1217 76.6949 77.1217 76.6949 77.5661C76.6949 79.2367 76.6949 80.8919 76.6949 82.5625C76.6949 82.6391 76.6949 82.7157 76.6949 82.777C76.6949 82.9303 76.7716 83.0069 76.925 82.9916C77.0017 82.9916 77.0785 82.9916 77.1398 82.9916C78.8888 82.9916 80.6531 82.9916 82.4021 82.9916C82.8777 82.9916 83.3533 82.9456 83.8289 82.8537C84.6421 82.7004 85.2864 82.3326 85.5319 81.4896C85.8234 80.5547 85.8541 79.6045 85.6239 78.6696C85.4552 77.9799 85.0256 77.5355 84.3505 77.3209C83.8749 77.1676 83.3994 77.1063 82.9084 77.1063C81.9879 77.1217 81.052 77.1217 80.1162 77.1217Z" fill="#0C7A3E"/>
<path d="M102.208 84.7235C102.208 81.1678 102.208 77.6122 102.208 74.0565C102.208 73.52 102.208 73.5967 102.668 73.5967C105.691 73.5967 108.713 73.5967 111.72 73.5967C113.101 73.5967 114.466 73.6886 115.801 74.0411C115.954 74.0871 116.108 74.1331 116.261 74.1791C117.918 74.6695 118.946 75.773 119.468 77.3976C119.759 78.3325 119.913 79.2827 119.928 80.2483C119.943 81.3518 119.943 82.4552 119.775 83.5434C119.652 84.325 119.452 85.076 119.115 85.7964C118.701 86.67 118.041 87.2983 117.166 87.7121C116.307 88.1106 115.387 88.3099 114.436 88.4325C113.408 88.5551 112.38 88.5857 111.352 88.5704C109.894 88.5704 108.437 88.5704 106.964 88.5704C106.872 88.5704 106.765 88.5704 106.673 88.5704C106.534 88.5704 106.473 88.6317 106.458 88.7697C106.458 88.8769 106.458 88.9842 106.458 89.1068C106.458 91.2219 106.458 93.3216 106.458 95.4366C106.458 95.927 106.473 95.8964 105.997 95.8964C104.893 95.8964 103.788 95.8964 102.684 95.8964C102.592 95.8964 102.484 95.8964 102.392 95.8964C102.285 95.8964 102.239 95.8351 102.223 95.7431C102.223 95.6358 102.223 95.5285 102.223 95.4059C102.208 91.8349 102.208 88.2792 102.208 84.7235ZM106.458 81.1065C106.458 82.2713 106.458 83.4361 106.458 84.6009C106.458 84.9688 106.458 84.9688 106.826 84.9688C108.575 84.9688 110.339 84.9688 112.088 84.9688C112.763 84.9688 113.438 84.8921 114.083 84.6622C114.62 84.4783 115.003 84.1105 115.249 83.6047C115.371 83.3442 115.463 83.053 115.525 82.7771C115.663 82.1181 115.678 81.459 115.648 80.8C115.617 80.2483 115.556 79.7118 115.387 79.1754C115.126 78.3172 114.589 77.7654 113.73 77.5049C113.131 77.321 112.533 77.2443 111.919 77.2443C110.232 77.229 108.529 77.2443 106.841 77.2443C106.473 77.2443 106.458 77.2597 106.458 77.6428C106.458 78.7769 106.458 79.9417 106.458 81.1065Z" fill="#0C7A3E"/>
<path d="M98.3421 84.7388C98.3421 88.2792 98.3421 91.8195 98.3421 95.3752C98.3421 95.9423 98.4189 95.8963 97.8052 95.8963C96.7312 95.8963 95.642 95.8963 94.568 95.8963C94.1231 95.8963 94.1231 95.8963 94.1231 95.4672C94.1231 92.7698 94.1231 90.0723 94.1231 87.3749C94.1231 82.9456 94.1231 78.5164 94.1231 74.1024C94.1231 73.5506 94.1078 73.6273 94.5987 73.6273C95.688 73.6273 96.7773 73.6273 97.8819 73.6273C97.9739 73.6273 98.0506 73.6273 98.1427 73.6273C98.2961 73.612 98.3728 73.6733 98.3575 73.8418C98.3575 73.9491 98.3575 74.0564 98.3575 74.179C98.3421 77.6734 98.3421 81.2138 98.3421 84.7388Z" fill="#0C7A3E"/>
<path d="M32.4947 61.9334C32.4947 63.4354 32.4947 64.922 32.4947 66.424C32.4947 66.5159 32.4947 66.6232 32.4947 66.7152C32.4947 66.8684 32.5561 66.9451 32.7095 66.9298C32.9243 66.9298 33.1237 66.9298 33.3385 66.9298C33.4766 66.9298 33.5379 66.9911 33.5379 67.129C33.5379 67.2669 33.5379 67.4049 33.5379 67.5275C33.5379 68.7689 33.5379 70.0103 33.5379 71.2364C33.5379 71.5736 33.5379 71.5736 33.2004 71.5889C32.7402 71.5889 32.2646 71.5889 31.8043 71.5889C31.4514 71.5889 31.4514 71.5889 31.4514 71.2518C31.4514 70.6081 31.4514 69.949 31.4514 69.3053C31.4514 69.2134 31.4514 69.1367 31.4514 69.0448C31.4514 68.9068 31.3901 68.8455 31.252 68.8455C31.1599 68.8455 31.0832 68.8455 30.9912 68.8455C28.7819 68.8455 26.5727 68.8455 24.3635 68.8455C24.3021 68.8455 24.2407 68.8455 24.1794 68.8455C23.9339 68.8609 23.9185 68.8609 23.9032 69.1214C23.9032 69.7038 23.9032 70.2709 23.9032 70.8533C23.9032 71.0372 23.9032 71.2211 23.9032 71.405C23.9032 71.5276 23.8572 71.5889 23.7191 71.5889C23.1514 71.5889 22.5838 71.5889 22.0315 71.5889C21.8934 71.5889 21.832 71.5123 21.832 71.3897C21.832 71.3131 21.832 71.2364 21.832 71.1751C21.832 69.903 21.832 68.631 21.832 67.3589C21.832 67.2823 21.832 67.2056 21.832 67.1443C21.832 67.0064 21.9087 66.9451 22.0468 66.9451C22.1696 66.9451 22.2923 66.9298 22.415 66.9451C22.6605 66.9757 22.7986 66.8685 22.9367 66.6845C23.3816 66.0868 23.6424 65.3971 23.7651 64.6615C23.8879 63.9411 23.9339 63.2208 23.9339 62.5005C23.9339 60.8146 23.9339 59.144 23.9339 57.4581C23.9339 57.3662 23.9339 57.2589 23.9339 57.1669C23.9339 57.029 24.0106 56.9677 24.1333 56.983C24.21 56.983 24.2867 56.983 24.3481 56.983C26.9102 56.983 29.4723 56.983 32.0344 56.983C32.51 56.983 32.4794 56.9524 32.4794 57.4121C32.4947 58.9141 32.4947 60.4314 32.4947 61.9334ZM25.1919 66.8991C25.284 66.9451 25.376 66.9451 25.4681 66.9451C26.9409 66.9451 28.4137 66.9451 29.8866 66.9451C30.2394 66.9451 30.2548 66.9451 30.2548 66.5773C30.2548 64.1404 30.2548 61.7035 30.2548 59.2666C30.2548 58.9141 30.2548 58.8988 29.8712 58.8988C28.7819 58.8988 27.6927 58.8988 26.6034 58.8988C26.1585 58.8988 26.1585 58.8988 26.1585 59.3433C26.1585 59.4199 26.1585 59.4965 26.1585 59.5578C26.1431 60.9372 26.2045 62.3319 26.0971 63.7112C26.005 64.7994 25.867 65.8876 25.2073 66.8071C25.1919 66.8225 25.1919 66.8531 25.1919 66.8991Z" fill="#0C7A3E"/>
<path d="M116.982 59.144C116.814 59.2513 116.783 59.3739 116.737 59.4812C115.356 62.2093 113.991 64.922 112.625 67.6501C112.472 67.9719 112.288 68.2785 112.15 68.6003C112.073 68.7689 111.966 68.8609 111.751 68.8609C110.861 68.8455 109.956 68.8609 109.066 68.8609C108.79 68.8609 108.774 68.8455 108.774 68.5697C108.774 68.5084 108.774 68.4471 108.774 68.3858C108.774 64.7534 108.774 61.1364 108.774 57.5041C108.774 57.4122 108.774 57.3355 108.774 57.2436C108.774 57.075 108.836 56.9983 109.02 56.9983C109.603 56.9983 110.201 57.0137 110.784 56.9983C110.984 56.9983 111.045 57.0903 111.03 57.2589C111.03 57.3509 111.03 57.4275 111.03 57.5194C111.03 59.941 111.03 62.3472 111.03 64.7688C111.03 65.3052 111.045 65.8416 110.953 66.378C110.938 66.4546 110.907 66.5466 110.984 66.6232C111.091 66.5619 111.106 66.4546 111.152 66.3627C112.226 64.2477 113.285 62.148 114.344 60.0329C114.804 59.1134 115.279 58.1938 115.74 57.2742C115.832 57.075 115.954 56.983 116.185 56.9983C117.044 57.0137 117.903 56.9983 118.762 56.9983C119.1 56.9983 119.1 56.9983 119.1 57.3509C119.1 60.0023 119.1 62.6384 119.1 65.2898C119.1 66.3627 119.1 67.4202 119.1 68.493C119.1 68.8609 119.1 68.8609 118.747 68.8762C118.24 68.8762 117.734 68.8762 117.243 68.8762C116.875 68.8762 116.875 68.8762 116.86 68.5084C116.86 67.9413 116.86 67.3742 116.86 66.8225C116.86 64.8914 116.86 62.9449 116.86 61.0138C116.86 60.3854 116.89 59.8031 116.982 59.144Z" fill="#0C7A3E"/>
<path d="M47.1151 62.7457C47.1611 62.807 47.2225 62.807 47.2685 62.8224C48.2351 63.0522 48.7874 63.6806 48.9408 64.6462C49.0789 65.5044 49.0482 66.3627 48.6953 67.175C48.2657 68.1559 47.4833 68.6463 46.4554 68.7996C46.1332 68.8456 45.8264 68.8609 45.5042 68.8609C43.6478 68.8609 41.8068 68.8609 39.9504 68.8609C39.8583 68.8609 39.7509 68.8609 39.6589 68.8609C39.5055 68.8609 39.4288 68.7996 39.4288 68.6463C39.4288 68.5544 39.4288 68.4777 39.4288 68.3858C39.4288 64.7535 39.4288 61.1058 39.4288 57.4735C39.4288 56.9217 39.4134 56.9984 39.9044 56.9984C41.8835 56.9984 43.8473 56.9984 45.8264 57.0137C46.2559 57.0137 46.6855 57.1057 47.0844 57.2436C47.9129 57.5348 48.4345 58.0865 48.6339 58.9601C48.8027 59.6651 48.8027 60.3702 48.6186 61.0752C48.4345 61.8261 48.0203 62.3779 47.2685 62.6538C47.2071 62.6384 47.1304 62.6538 47.1151 62.7457ZM43.6938 63.65C43.0495 63.65 42.5278 63.65 42.0062 63.65C41.6687 63.65 41.6533 63.6653 41.6533 64.0025C41.6533 64.8914 41.6533 65.765 41.6533 66.6539C41.6533 66.9758 41.6687 66.9911 41.9755 66.9911C42.8807 66.9911 43.7859 66.9911 44.6911 66.9911C45.0746 66.9911 45.4428 66.9451 45.811 66.8225C46.3327 66.6539 46.6395 66.2708 46.7315 65.7343C46.7776 65.4738 46.7776 65.1979 46.7469 64.9374C46.6548 64.1404 46.3633 63.8339 45.5809 63.7113C44.9212 63.6193 44.2461 63.6806 43.6938 63.65ZM43.6018 58.8529C43.0648 58.8529 42.5278 58.8529 41.9909 58.8529C41.6687 58.8529 41.6533 58.8682 41.6533 59.19C41.6533 60.0176 41.6533 60.8299 41.6533 61.6576C41.6533 61.9947 41.6687 62.0101 42.0062 62.0101C42.9114 62.0101 43.8166 62.0101 44.7217 62.0101C45.0439 62.0101 45.3508 61.9641 45.6576 61.8874C46.0105 61.7802 46.2559 61.5656 46.3787 61.2131C46.5474 60.7073 46.5628 60.1862 46.4247 59.6651C46.3327 59.328 46.1179 59.1134 45.7957 59.0061C45.5349 58.9142 45.2741 58.8835 44.9979 58.8835C44.5376 58.8529 44.062 58.8529 43.6018 58.8529Z" fill="#0C7A3E"/>
<path d="M98.5262 66.6692C98.649 66.6079 98.6796 66.4853 98.7257 66.378C100.198 63.4507 101.671 60.508 103.159 57.5807C103.252 57.3815 103.328 57.1363 103.497 57.029C103.666 56.9064 103.927 56.9983 104.141 56.9983C104.893 56.9983 105.645 56.9983 106.381 56.9983C106.657 56.9983 106.657 56.9983 106.673 57.2895C106.673 57.3508 106.673 57.4121 106.673 57.4734C106.673 61.1057 106.673 64.7534 106.673 68.3857C106.673 68.8762 106.719 68.8761 106.197 68.8608C105.737 68.8608 105.292 68.8608 104.832 68.8608C104.448 68.8608 104.448 68.8608 104.448 68.4623C104.448 68.0639 104.448 67.6807 104.448 67.2822C104.448 65.1212 104.448 62.9755 104.448 60.8145C104.448 60.3548 104.433 59.8796 104.525 59.4199C104.54 59.3586 104.54 59.2973 104.51 59.2359C104.372 59.2666 104.356 59.4045 104.31 59.5118C103.497 61.1211 102.684 62.7303 101.871 64.3396C101.165 65.7496 100.444 67.1596 99.7382 68.5696C99.6308 68.7842 99.5081 68.8761 99.2626 68.8608C98.4188 68.8455 97.575 68.8608 96.7159 68.8608C96.3477 68.8608 96.3477 68.8608 96.3477 68.493C96.3477 64.784 96.3477 61.0598 96.3477 57.3508C96.3477 57.2895 96.3477 57.2282 96.3477 57.1669C96.3477 57.0443 96.409 56.983 96.5318 56.983C97.1608 56.983 97.7898 56.983 98.4035 56.983C98.5569 56.983 98.6029 57.0596 98.6029 57.1822C98.6029 57.2742 98.6029 57.3508 98.6029 57.4428C98.6029 59.9869 98.6029 62.5158 98.6029 65.0599C98.6029 65.5197 98.5876 65.9948 98.4955 66.4546C98.4955 66.5159 98.4648 66.5925 98.5262 66.6692Z" fill="#0C7A3E"/>
<path d="M84.2272 62.899C84.2272 61.0905 84.2272 59.2973 84.2272 57.4888C84.2272 57.4275 84.2272 57.3662 84.2272 57.3049C84.2272 56.983 84.2272 56.983 84.5494 56.983C85.0864 56.983 85.6233 56.983 86.1757 56.983C86.4672 56.983 86.4825 56.983 86.4825 57.2895C86.4825 58.6383 86.4825 59.987 86.4825 61.3357C86.4825 61.4123 86.4825 61.4889 86.4825 61.5502C86.4825 61.9181 86.4825 61.9181 86.8507 61.9181C88.4616 61.9181 90.0725 61.9181 91.6681 61.9181C92.0056 61.9181 92.0209 61.9181 92.0209 61.5656C92.0209 60.1709 92.0209 58.7762 92.0209 57.3815C92.0209 56.9524 91.9903 56.983 92.4198 56.983C92.9415 56.983 93.4784 56.983 94.0001 56.983C94.2609 56.983 94.2609 56.9984 94.2762 57.2589C94.2762 57.3202 94.2762 57.3815 94.2762 57.4428C94.2762 61.0905 94.2762 64.7534 94.2762 68.4011C94.2762 68.8455 94.3529 68.8609 93.816 68.8609C93.3557 68.8609 92.8801 68.8609 92.4198 68.8609C92.0209 68.8609 92.0209 68.8609 92.0209 68.4471C92.0209 67.083 92.0209 65.719 92.0209 64.3703C92.0209 64.2783 92.0209 64.2017 92.0209 64.1097C92.0209 63.7879 92.0209 63.7879 91.6834 63.7879C90.0572 63.7879 88.4463 63.7879 86.82 63.7879C86.4825 63.7879 86.4671 63.7879 86.4671 64.1404C86.4671 65.5351 86.4671 66.9298 86.4671 68.3244C86.4671 68.4164 86.4671 68.5237 86.4671 68.6157C86.4825 68.7842 86.4058 68.8609 86.237 68.8609C85.6387 68.8609 85.0403 68.8609 84.4267 68.8609C84.2732 68.8609 84.1965 68.7842 84.2119 68.631C84.2119 68.539 84.2119 68.4317 84.2119 68.3398C84.2272 66.516 84.2272 64.7075 84.2272 62.899Z" fill="#0C7A3E"/>
<path d="M70.8642 62.9143C70.8642 64.7228 70.8642 66.5466 70.8642 68.3551C70.8642 68.4164 70.8642 68.4777 70.8642 68.539C70.8642 68.8609 70.8642 68.8609 70.5267 68.8609C70.005 68.8609 69.4681 68.8609 68.9464 68.8609C68.6243 68.8609 68.6089 68.8609 68.6089 68.5237C68.6089 67.4508 68.6089 66.3933 68.6089 65.3205C68.6089 63.3587 68.6089 61.397 68.6089 59.4352C68.6089 59.3586 68.6089 59.2819 68.6089 59.2206C68.6089 58.8988 68.5936 58.8988 68.2714 58.8988C66.998 58.8988 65.7246 58.8988 64.4359 58.8988C64.0677 58.8988 64.0677 58.8988 64.0677 59.2666C64.0677 61.4583 64.0677 63.6499 64.0677 65.8569C64.0677 66.3933 63.991 66.9144 63.7762 67.4049C63.408 68.2938 62.733 68.7996 61.7818 68.9528C61.2755 69.0448 60.7538 69.0294 60.2476 68.9681C59.9714 68.9375 59.9714 68.9222 59.9561 68.6463C59.9561 68.2018 59.9561 67.7574 59.9561 67.3282C59.9561 67.083 59.9714 67.083 60.2169 67.083C60.4623 67.083 60.7078 67.1137 60.9533 67.083C61.4442 67.0217 61.7204 66.7765 61.8278 66.286C61.8738 66.0868 61.8738 65.9029 61.8738 65.7036C61.8738 62.9602 61.8738 60.2168 61.8738 57.4581C61.8738 56.937 61.8585 56.9983 62.3341 56.9983C65.0342 56.9983 67.7344 56.9983 70.4346 56.9983C70.4653 56.9983 70.5113 56.9983 70.542 56.9983C70.8489 56.9983 70.8489 56.9983 70.8642 57.3355C70.8642 57.6114 70.8642 57.8719 70.8642 58.1478C70.8642 59.7264 70.8642 61.3203 70.8642 62.9143Z" fill="#0C7A3E"/>
<path d="M50.9508 62.9143C50.9508 61.1058 50.9508 59.282 50.9508 57.4735C50.9508 57.3815 50.9508 57.2742 50.9508 57.1823C50.9508 57.0443 51.0121 56.983 51.1502 56.983C51.2423 56.983 51.319 56.983 51.411 56.983C53.789 56.983 56.167 56.983 58.5604 56.983C58.6524 56.983 58.7291 56.983 58.8212 56.983C58.9593 56.983 59.0206 57.029 59.0206 57.1823C59.0206 57.6727 59.0206 58.1632 59.0206 58.6536C59.0206 58.7915 58.9439 58.8528 58.8212 58.8528C58.7291 58.8528 58.6217 58.8528 58.5297 58.8528C56.9955 58.8528 55.4613 58.8528 53.9271 58.8528C53.8351 58.8528 53.7583 58.8528 53.6663 58.8528C53.2214 58.8528 53.2214 58.8528 53.2214 59.282C53.2214 60.0176 53.2214 60.7533 53.2214 61.489C53.2214 61.5196 53.2214 61.5656 53.2214 61.5962C53.2367 61.9028 53.2367 61.9028 53.5282 61.9181C53.6203 61.9181 53.697 61.9181 53.789 61.9181C55.2619 61.9181 56.7347 61.9181 58.2075 61.9181C58.2842 61.9181 58.3609 61.9181 58.4223 61.9181C58.7445 61.9181 58.7445 61.9181 58.7445 62.2553C58.7445 62.6844 58.7445 63.1135 58.7445 63.5427C58.7445 63.7113 58.6831 63.7879 58.5143 63.7879C58.4223 63.7879 58.3456 63.7879 58.2535 63.7879C56.7961 63.7879 55.3386 63.7879 53.8657 63.7879C53.7737 63.7879 53.697 63.7879 53.6049 63.7879C53.2214 63.7879 53.2214 63.7879 53.206 64.171C53.206 64.2324 53.206 64.2937 53.206 64.355C53.206 65.06 53.206 65.7497 53.206 66.4547C53.206 67.083 53.1447 67.0064 53.743 67.0217C55.3079 67.0217 56.8574 67.0217 58.4223 67.0217C59.0973 67.0217 59.0053 66.9298 59.0053 67.6041C59.0053 67.9413 59.0053 68.2938 59.0053 68.631C59.0053 68.7996 58.9439 68.8762 58.7598 68.8762C58.6831 68.8762 58.6064 68.8762 58.545 68.8762C56.167 68.8762 53.789 68.8762 51.3957 68.8762C50.8587 68.8762 50.9354 68.8456 50.9354 68.4164C50.9508 66.5619 50.9508 64.7381 50.9508 62.9143Z" fill="#0C7A3E"/>
<path d="M72.9509 62.8989C72.9509 61.0597 72.9509 59.2206 72.9509 57.3814C72.9509 56.9523 72.9202 56.9829 73.3344 56.9676C73.8254 56.9676 74.3163 56.9676 74.8073 56.9676C75.2062 56.9676 75.1908 56.9523 75.1908 57.3354C75.1908 57.9945 75.1908 58.6535 75.1908 59.3125C75.1908 60.0175 75.1908 60.7379 75.1908 61.4429C75.1908 61.9333 75.1601 61.8873 75.6511 61.8873C76.7864 61.8873 77.9063 61.8873 79.0417 61.8873C79.5019 61.8873 79.9468 61.964 80.3764 62.1019C81.2816 62.4084 81.8799 63.0062 82.1254 63.9257C82.3709 64.876 82.3709 65.8415 82.0487 66.7917C81.6498 67.9565 80.806 68.6003 79.594 68.7688C79.3178 68.8148 79.0263 68.8148 78.7502 68.8148C76.9705 68.8148 75.1908 68.8148 73.4111 68.8148C73.3191 68.8148 73.2117 68.8148 73.1197 68.8148C72.9969 68.8148 72.9355 68.7535 72.9355 68.6309C72.9355 68.5389 72.9355 68.4317 72.9355 68.3397C72.9509 66.5465 72.9509 64.7227 72.9509 62.8989ZM77.0779 63.7878C76.5563 63.7725 76.05 63.7725 75.5283 63.7725C75.2062 63.7725 75.2062 63.7725 75.2062 64.0943C75.2062 64.9373 75.2062 65.7802 75.2062 66.6232C75.2062 66.9757 75.2062 66.9757 75.5897 66.9757C76.4642 66.9757 77.3234 66.9757 78.1978 66.9757C78.474 66.9757 78.7655 66.945 79.0417 66.899C79.5326 66.8071 79.8548 66.5312 79.9775 66.0408C80.0849 65.6116 80.0849 65.1672 80.0082 64.7227C79.9468 64.3089 79.7014 64.0177 79.2718 63.8951C79.0417 63.8338 78.7962 63.7725 78.5507 63.7725C78.0598 63.7878 77.5688 63.7878 77.0779 63.7878Z" fill="#0C7A3E"/>
<path d="M21.4324 57.0443C21.3404 57.2589 21.2483 57.4888 21.1563 57.7033C19.9136 60.5234 18.6555 63.3434 17.4129 66.1787C17.1827 66.6998 16.9219 67.2209 16.5844 67.696C15.9707 68.585 15.1269 69.0447 14.0223 69.0294C13.6694 69.0294 13.3166 68.9834 12.9637 68.9681C12.7796 68.9681 12.7182 68.8762 12.7182 68.6922C12.7336 68.2171 12.7336 67.742 12.7182 67.2516C12.7182 67.083 12.7796 67.037 12.933 67.0677C13.2245 67.1136 13.516 67.0983 13.8075 67.083C14.0223 67.0677 14.2217 67.0217 14.4058 66.945C14.7587 66.7765 14.9121 66.4853 14.8201 66.1021C14.774 65.9182 14.6973 65.7343 14.6053 65.5504C13.3472 62.8376 12.0892 60.1249 10.8312 57.4274C10.7698 57.3048 10.6931 57.1976 10.6777 57.0443C10.7391 56.9677 10.8312 56.9983 10.9079 56.9983C11.6136 56.9983 12.3347 56.9983 13.0404 56.9983C13.2398 56.9983 13.3472 57.0443 13.4239 57.2435C14.1604 59.1593 14.9275 61.0751 15.6639 62.9909C15.848 63.4507 15.9247 63.9258 16.0014 64.4162C16.0934 64.4009 16.1088 64.3396 16.1241 64.2783C16.3696 63.0828 16.8912 61.9793 17.3055 60.8452C17.7504 59.6804 18.1953 58.5156 18.6402 57.3508C18.7936 56.9677 18.7323 57.0136 19.1311 57.0136C19.8215 57.0136 20.5119 57.0136 21.187 57.0136C21.2944 56.983 21.3557 56.9677 21.4324 57.0443Z" fill="#0C7A3E"/>
<path d="M35.0866 62.9142C35.0866 61.121 35.0866 59.3125 35.0866 57.5193C35.0866 57.4274 35.0866 57.3201 35.0866 57.2281C35.0713 57.0596 35.148 56.9829 35.3168 56.9983C35.9151 56.9983 36.5134 56.9983 37.1118 56.9983C37.2805 56.9983 37.3266 57.0749 37.3266 57.2128C37.3266 57.3048 37.3266 57.3814 37.3266 57.4734C37.3266 61.1057 37.3266 64.7533 37.3266 68.3857C37.3266 68.8914 37.3572 68.8761 36.851 68.8761C36.3907 68.8761 35.9151 68.8761 35.4548 68.8761C35.0713 68.8761 35.0713 68.8761 35.0713 68.4776C35.0713 67.2209 35.0713 65.9794 35.0713 64.7227C35.0866 64.1096 35.0866 63.5119 35.0866 62.9142Z" fill="#0C7A3E"/>
<path d="M111.766 54.025C111.859 54.025 111.966 54.025 112.058 54.025C112.396 54.025 112.411 54.025 112.488 54.3775C112.564 54.6687 112.748 54.8526 113.04 54.8986C113.485 54.9752 113.945 54.9752 114.39 54.8833C114.697 54.822 114.881 54.6381 114.942 54.3315C115.004 54.025 115.019 54.025 115.31 54.025C115.587 54.025 115.847 54.025 116.124 54.025C116.292 54.025 116.369 54.071 116.354 54.2549C116.292 55.1285 115.909 55.8182 115.065 56.0787C114.175 56.3546 113.27 56.3546 112.38 56.1094C111.613 55.8948 111.199 55.3584 111.076 54.5921C110.969 53.9331 111.015 54.025 111.552 54.025C111.644 54.025 111.705 54.025 111.766 54.025Z" fill="#0C7A3E"/>
</g>
<defs>
<clipPath id="clip0">
<rect width="166" height="101" fill="white"/>
</clipPath>
</defs>
</svg>
