<svg width="20" height="20" viewBox="0 0 20 20" fill="none" xmlns="http://www.w3.org/2000/svg">
<path d="M18.8848 19.2596L17.3004 13.4631C17.2648 13.3327 17.1852 13.2187 17.0751 13.1403C14.5638 11.3518 15.387 11.938 13.2401 10.4092C14.055 9.5718 14.5248 8.43969 14.5248 7.25461C14.5248 4.89211 14.5405 4.76281 14.4712 4.3318C14.4457 1.85867 12.5712 0 10.0906 0H9.90843C7.42784 0 5.55343 1.85867 5.52784 4.33184C5.45858 4.76285 5.47429 4.89203 5.47429 7.25465C5.47429 8.43965 5.94405 9.57176 6.75901 10.4093C4.04214 12.3439 5.62964 11.2134 2.92393 13.1403C2.81386 13.2187 2.73425 13.3328 2.69862 13.4631L1.11429 19.2596C1.01245 19.6322 1.29343 20 1.67948 20H9.41362V13.8079L9.99956 13.423L10.5855 13.8079V20H18.3196C18.7059 20 18.9866 19.6319 18.8848 19.2596ZM9.6169 1.89852H10.3822C10.7058 1.89852 10.9681 2.16086 10.9681 2.48445C10.9681 2.80805 10.7058 3.07039 10.3822 3.07039H9.6169C9.29331 3.07039 9.03097 2.80805 9.03097 2.48445C9.03097 2.16086 9.29331 1.89852 9.6169 1.89852ZM9.41366 12.4057L8.12479 13.2526L6.40554 12.0996L7.72202 11.1621C8.26015 11.476 8.84139 11.6637 9.41366 11.7374V12.4057ZM9.99956 10.6031C8.13843 10.6031 6.64616 9.0927 6.64616 7.25465C6.64612 6.83504 6.64565 6.48777 6.64526 6.19699L6.96026 6.65688C7.06948 6.81637 7.25034 6.91168 7.44366 6.91168H12.5554C12.7487 6.91168 12.9296 6.81637 13.0388 6.65688L13.3538 6.19699C13.3534 6.48773 13.353 6.83504 13.353 7.25465C13.353 9.07625 11.8773 10.6031 9.99956 10.6031ZM10.5855 12.4057V11.7374C11.1882 11.6599 11.7648 11.4609 12.2771 11.1621L13.5935 12.0996L11.8743 13.2525L10.5855 12.4057ZM14.9772 17.5036H12.9226C12.599 17.5036 12.3366 17.2413 12.3366 16.9177C12.3366 16.5941 12.599 16.3318 12.9226 16.3318H14.9772C15.3008 16.3318 15.5631 16.5941 15.5631 16.9177C15.5631 17.2413 15.3008 17.5036 14.9772 17.5036Z" fill="#C7C7C8"/>
</svg>
