<svg width="21" height="21" viewBox="0 0 21 21" fill="none" xmlns="http://www.w3.org/2000/svg">
<path fill-rule="evenodd" clip-rule="evenodd" d="M14.9707 4.38931C16.7914 4.81181 17.4879 5.87645 18.3611 7.3418H14.9707V4.38931ZM4.33035 7.46484C4.68684 7.46484 4.94559 7.63692 4.94559 8.03906C4.94559 8.37824 4.67113 8.65334 4.33212 8.6543H0.615234C0.275414 8.6543 0 8.92987 0 9.26953C0 9.60935 0.275414 9.88477 0.615234 9.88477H6.15234C6.49537 9.88477 6.76998 10.16 6.76998 10.5C6.76998 10.8398 6.49457 11.1152 6.15475 11.1152H0.615234C0.275414 11.1152 0 11.3906 0 11.7305C0 12.0703 0.275414 12.3457 0.615234 12.3457H1.96875V14.1914C1.96875 14.5312 2.24416 14.8066 2.58398 14.8066H3.8207C4.04116 15.8926 5.0007 16.6934 6.13184 16.6934C7.26297 16.6934 8.22251 15.8926 8.44297 14.8066H14.6898C14.9103 15.8926 15.8698 16.6934 17.001 16.6934C18.1321 16.6934 19.0917 15.8926 19.3121 14.8066H20.3848C20.7246 14.8066 21 14.5312 21 14.1914V10.5C21 8.69483 19.096 8.57499 19.0942 8.57227H14.3555C14.0156 8.57227 13.7402 8.29685 13.7402 7.95703V4.26562H2.58398C2.24416 4.26562 1.96875 4.54104 1.96875 4.88086V6.23438H1.23047C0.890648 6.23438 0.615234 6.50979 0.615234 6.84961C0.615234 7.18943 0.890648 7.46484 1.23047 7.46484H4.33035ZM17.7985 13.5374C18.239 13.9778 18.239 14.6922 17.7985 15.1327C17.0901 15.8412 15.873 15.3371 15.873 14.335C15.873 13.333 17.0901 12.8289 17.7985 13.5374ZM6.9294 13.5374C7.36983 13.9778 7.36983 14.6922 6.9294 15.1327C6.22092 15.8412 5.00391 15.3371 5.00391 14.335C5.00391 13.333 6.22092 12.8289 6.9294 13.5374Z" fill="#C7C7C8"/>
</svg>
