<svg width="20" height="20" viewBox="0 0 20 20" fill="none" xmlns="http://www.w3.org/2000/svg">
<path fill-rule="evenodd" clip-rule="evenodd" d="M16.0254 5.92177C16.0859 5.90249 16.1655 5.94105 16.2451 6.04707C16.2451 6.04707 16.2451 6.04707 19.8419 9.60042C20.052 9.81246 20.052 10.1337 19.8419 10.2912C19.8419 10.2912 19.8419 10.2912 16.2451 13.8991C16.1655 14.0052 16.0859 14.0309 16.0254 13.9987C15.965 13.9666 15.9268 13.8734 15.9268 13.7385V6.15309C15.9268 6.02136 15.965 5.94104 16.0254 5.92177Z" fill="#C7C7C8"/>
<path fill-rule="evenodd" clip-rule="evenodd" d="M9.87217 0H10.1268L10.3719 0.10281C10.3719 0.10281 10.3719 0.10281 14.0738 3.8168C14.2329 4.02884 14.1788 4.18948 13.9146 4.18948C13.9146 4.18948 13.9146 4.18948 12.3804 4.18948C12.1162 4.18948 11.9061 4.40153 11.9061 4.66819C11.9061 4.66819 11.9061 4.66819 11.9061 7.42477C11.9061 7.69143 11.6929 7.90347 11.3746 7.90347C11.3746 7.90347 11.3746 7.90347 8.67852 7.90347C8.41433 7.90347 8.20106 7.69143 8.20106 7.42477C8.20106 7.42477 8.20106 7.42477 8.20106 4.66819C8.20106 4.40153 7.99098 4.18948 7.72361 4.18948H6.08433C5.82014 4.18948 5.76603 4.02884 5.92518 3.8168C5.92518 3.8168 5.92518 3.8168 9.63026 0.10281L9.87217 0Z" fill="#C7C7C8"/>
<path fill-rule="evenodd" clip-rule="evenodd" d="M4.07272 5.84009C4.13956 5.87222 4.18094 5.96539 4.18094 6.10032V13.8432C4.18094 13.9781 4.13956 14.0584 4.07272 14.0841C4.00905 14.1098 3.91675 14.0841 3.80852 14.0038C3.80852 14.0038 3.80852 14.0038 0.157561 10.2898C-0.0525204 10.1324 -0.0525204 9.8111 0.157561 9.59906C0.157561 9.59906 0.157561 9.59906 3.80852 5.93968C3.91675 5.83366 4.00905 5.80796 4.07272 5.84009Z" fill="#C7C7C8"/>
<path fill-rule="evenodd" clip-rule="evenodd" d="M8.67958 11.9365C8.67958 11.9365 8.67958 11.9365 11.3756 11.9365C11.6939 11.9365 11.9072 12.1486 11.9072 12.4152C11.9072 12.4152 11.9072 12.4152 11.9072 15.3324C11.9072 15.6505 12.1173 15.8626 12.3815 15.8626H13.8107C14.0749 15.8626 14.1799 16.02 13.9698 16.1806C13.9698 16.1806 13.9698 16.1806 10.373 19.84C10.2647 19.946 10.1342 20.0006 10.0006 20.0006C9.87005 20.0006 9.73636 19.946 9.63132 19.84C9.63132 19.84 9.63132 19.84 6.03447 16.1806C5.8212 16.02 5.92624 15.8626 6.19044 15.8626C6.19044 15.8626 6.19044 15.8626 7.72467 15.8626C7.99204 15.8626 8.20213 15.6505 8.20213 15.3324C8.20213 15.3324 8.20213 15.3324 8.20213 12.4152C8.20213 12.1486 8.41539 11.9365 8.67958 11.9365Z" fill="#C7C7C8"/>
</svg>
