<svg width="20" height="20" viewBox="0 0 20 20" fill="none" xmlns="http://www.w3.org/2000/svg">
<g clip-path="url(#clip0_301_3392)">
<path d="M0.00390472 4.9668C0.449043 5.1347 0.874658 5.29089 1.30027 5.45098C3.92034 6.43497 6.54041 7.41896 9.16439 8.39515C9.3401 8.46153 9.37915 8.53962 9.37915 8.71533C9.37524 12.2999 9.37524 15.8844 9.37524 19.4728C9.37524 19.5509 9.37524 19.6251 9.37524 19.7267C8.93401 19.5627 8.5162 19.4065 8.0984 19.2503C5.46661 18.2624 2.83093 17.2745 0.199141 16.2905C0.0585709 16.2397 0 16.1812 0 16.0172C0.00780945 12.4053 0.00390472 8.79343 0.00390472 5.18156C0.00390472 5.11908 0.00390472 5.05661 0.00390472 4.9668ZM2.50293 13.9828C2.50293 14.385 2.51074 14.7638 2.49902 15.1386C2.49512 15.2714 2.53807 15.3299 2.66302 15.3768C3.39321 15.6462 4.12339 15.9195 4.85357 16.1929C4.89652 16.2085 4.94338 16.2163 5.00195 16.2319C5.00195 15.818 5.00586 15.4197 4.99805 15.0254C4.99805 14.9785 4.94729 14.9043 4.90433 14.8887C4.11558 14.588 3.32683 14.2913 2.50293 13.9828Z" fill="#C7C7C8"/>
<path d="M19.9961 4.98242C19.9961 5.22061 19.9961 5.43146 19.9961 5.63842C19.9961 9.10191 19.9961 12.5615 20 16.025C20 16.1577 19.9727 16.228 19.836 16.2788C16.8098 17.4073 13.7915 18.5435 10.7653 19.6759C10.7302 19.6876 10.6911 19.6993 10.6365 19.7189C10.6326 19.6486 10.6248 19.5861 10.6248 19.5236C10.6248 15.9039 10.6248 12.2882 10.6248 8.66848C10.6248 8.56696 10.613 8.47715 10.7536 8.42639C11.7181 8.07496 12.6747 7.70792 13.6392 7.34868C13.6704 7.33697 13.6978 7.33307 13.7485 7.31745C13.7485 8.3561 13.7485 9.38305 13.7485 10.4373C14.0062 10.3397 14.2405 10.2538 14.4748 10.164C15.0176 9.96095 15.5564 9.7579 16.0992 9.55876C16.2163 9.51581 16.2554 9.46114 16.2554 9.33619C16.2515 8.39906 16.2554 7.46192 16.2515 6.52479C16.2515 6.41155 16.2827 6.35688 16.3959 6.31393C17.5517 5.88441 18.7075 5.44708 19.8633 5.01756C19.8985 5.00195 19.9414 4.99804 19.9961 4.98242Z" fill="#C7C7C8"/>
<path d="M10.0117 4.52121C11.2612 5.03663 12.4756 5.54034 13.7407 6.05967C13.2644 6.23929 12.8427 6.39938 12.4209 6.55947C11.6673 6.84061 10.9137 7.12566 10.1562 7.40289C10.0742 7.43413 9.96097 7.44585 9.88287 7.41461C6.64195 6.20805 3.40884 4.99368 0.171822 3.77931C0.136679 3.7676 0.101537 3.74807 0.0351562 3.71683C0.117155 3.68169 0.167917 3.65436 0.226488 3.63483C3.43617 2.42827 6.64585 1.22562 9.85944 0.0229643C9.94144 -0.0082735 10.0547 -0.0082735 10.1328 0.0190596C13.3542 1.22171 16.5717 2.43218 19.7892 3.63874C19.836 3.65826 19.8868 3.67779 19.9649 3.70902C19.9024 3.74417 19.8633 3.7715 19.8204 3.78712C18.6724 4.22054 17.5205 4.65006 16.3686 5.07568C16.2905 5.10301 16.1773 5.0913 16.0992 5.05615C14.959 4.55244 13.8188 4.04093 12.6826 3.52941C12.5615 3.47474 12.46 3.46693 12.335 3.5216C11.6244 3.83007 10.9137 4.12683 10.2031 4.4314C10.1484 4.45483 10.0976 4.48216 10.0117 4.52121Z" fill="#C7C7C8"/>
</g>
<defs>
<clipPath id="clip0_301_3392">
<rect width="20" height="19.7267" fill="white"/>
</clipPath>
</defs>
</svg>
