<svg width="16" height="14" viewBox="0 0 16 14" fill="none" xmlns="http://www.w3.org/2000/svg">
<path d="M0.28252 6.67965L3.96941 8.05563L5.39638 12.6449C5.48765 12.9387 5.84698 13.0473 6.08547 12.8522L8.14062 11.177C8.35609 11.0014 8.66284 10.9927 8.88784 11.1562L12.5946 13.8473C12.8497 14.0326 13.2112 13.8929 13.2753 13.5846L15.9906 0.523723C16.0604 0.18682 15.7295 -0.0941309 15.4088 0.0298765L0.278354 5.86675C-0.0950573 6.0108 -0.0918827 6.53937 0.28252 6.67965ZM5.16643 7.32329L12.3716 2.88562C12.5009 2.80605 12.6342 2.98125 12.5229 3.08442L6.57674 8.61178C6.36761 8.80622 6.23289 9.06674 6.1946 9.34928L5.99222 10.8505C5.96523 11.0509 5.68368 11.0707 5.62833 10.8766L4.84936 8.13936C4.76028 7.82726 4.89024 7.49373 5.16643 7.32329Z" fill="#414042"/>
</svg>
