<svg width="15" height="16" viewBox="0 0 15 16" fill="none" xmlns="http://www.w3.org/2000/svg">
<path d="M7.8511 9.0387C7.66825 9.2218 7.37172 9.2218 7.18875 9.0387L5.06021 6.90857C4.97238 6.82068 4.92298 6.70142 4.92298 6.57715C4.92298 6.45276 4.97238 6.33362 5.06021 6.24561L5.43859 5.86707L4.32723 4.75488L3.41678 5.66602C3.11036 5.97266 3.11048 6.47156 3.41678 6.7782L7.31902 10.6836C7.46649 10.8312 7.66386 10.9124 7.87476 10.9124C8.08566 10.9124 8.28303 10.8311 8.4305 10.6835L9.34095 9.77246L8.2296 8.66016L7.8511 9.0387Z" fill="#414042"/>
<path d="M14.6292 5.64722C14.6292 4.14441 14.0408 2.72791 12.972 1.65845C11.9034 0.588989 10.4879 0 8.98635 0H5.64277C5.64277 0 5.64277 0 5.64265 0C4.1412 0 2.72575 0.588989 1.65721 1.65833C0.588551 2.72778 0 4.14441 0 5.64709V8.27722C0 9.44092 0.354716 10.5604 1.02585 11.5146C1.61794 12.3564 2.41422 13.0139 3.3426 13.4309V14.9417C3.3426 15.7228 3.77966 15.9999 4.15389 16C4.42127 16 4.68877 15.8679 4.94907 15.6075L6.63081 13.9243H8.98647C10.488 13.9243 11.9035 13.3353 12.9722 12.2659C14.0408 11.1964 14.6294 9.77991 14.6294 8.27722L14.6292 5.64722ZM10.3341 10.1049L9.09235 11.3474C8.76789 11.6721 8.33535 11.8507 7.87426 11.8507C7.41318 11.8507 6.98064 11.672 6.65618 11.3474L2.75381 7.44202C2.08231 6.76978 2.08231 5.67615 2.75381 5.00403L3.99556 3.76147C4.08339 3.67346 4.20244 3.62415 4.32673 3.62415C4.45091 3.62415 4.57008 3.67346 4.65791 3.76147L6.43173 5.53662C6.51956 5.62451 6.56884 5.74377 6.56884 5.86804C6.56884 5.99231 6.51956 6.11157 6.43161 6.19946L6.05335 6.578L7.51955 8.04529L7.89793 7.66663C8.0809 7.48364 8.37743 7.48364 8.56028 7.66675L10.3341 9.44189C10.422 9.52979 10.4713 9.64905 10.4713 9.77332C10.4713 9.89771 10.422 10.017 10.3341 10.1049ZM6.95991 4.55066C6.95991 4.29187 7.16959 4.08191 7.42831 4.08191C9.05124 4.08191 10.3717 5.4032 10.3717 7.02722C10.3717 7.28613 10.162 7.49597 9.90327 7.49597C9.64467 7.49597 9.43487 7.28613 9.43487 7.02722C9.43487 5.92017 8.53478 5.01941 7.42831 5.01941C7.16959 5.01941 6.95991 4.80957 6.95991 4.55066ZM11.91 7.49622C11.6512 7.49622 11.4416 7.28625 11.4416 7.02747C11.4417 5.95459 11.0241 4.94604 10.2662 4.18738C9.50806 3.42883 8.50026 3.01099 7.42818 3.01099C7.16959 3.01099 6.95978 2.80115 6.95978 2.54224C6.95978 2.28345 7.16959 2.07349 7.42818 2.07349C8.75044 2.07349 9.99354 2.58887 10.9285 3.52454C11.8636 4.46021 12.3785 5.70422 12.3784 7.02747C12.3784 7.28625 12.1687 7.49622 11.91 7.49622Z" fill="#414042"/>
</svg>
