<svg width="273" height="49" viewBox="0 0 273 49" fill="none" xmlns="http://www.w3.org/2000/svg">
<g clip-path="url(#clip0_115_6785)">
<path d="M74.084 32.7994L76.5886 29.3468C78.4341 31.2059 80.9386 32.1355 83.7069 32.1355C86.4751 32.1355 88.0569 31.2059 88.0569 29.4796C88.0569 27.8861 86.4751 27.4878 83.4432 26.5582C79.4886 25.3631 75.0067 24.0352 75.0067 19.3875C75.0067 15.271 78.4341 12.7479 83.8387 12.7479C87.0024 12.7479 89.7706 13.6775 92.2752 15.5365L89.6388 18.9891C87.9251 17.6612 85.816 16.8645 83.4432 16.8645C80.9386 16.8645 79.3568 17.794 79.3568 19.2547C79.3568 20.7154 81.0705 21.5122 84.366 22.3089C88.5842 23.504 92.6707 24.8319 92.6707 29.0813C92.6707 33.4634 89.2433 35.9864 83.5751 35.9864C79.8841 36.1192 76.4568 34.9241 74.084 32.7994Z" fill="#414042"/>
<path d="M116.001 13.1464L107.697 35.7209H102.028L93.8555 13.1464H98.601L104.928 31.3388L111.124 13.1464H116.001Z" fill="#414042"/>
<path d="M124.175 13.1464H119.693V35.7209H124.175V13.1464Z" fill="#414042"/>
<path d="M147.903 17.3957H140.257V35.7209H135.644V17.3957H127.998V13.1464H147.903V17.3957Z" fill="#414042"/>
<path d="M168.599 19.7859C168.599 23.7697 165.699 26.4255 161.349 26.4255H154.362V35.7209H152.385V13.1464H161.349C165.699 13.1464 168.599 15.8022 168.599 19.7859ZM166.621 19.7859C166.621 16.7317 164.644 14.8726 161.217 14.8726H154.362V24.6992H161.217C164.644 24.832 166.621 22.9729 166.621 19.7859Z" fill="#414042"/>
<path d="M185.339 29.6125H173.475L170.839 35.8537H168.861L178.352 13.2792H180.593L190.084 35.8537H187.975L185.339 29.6125ZM184.548 27.7534L179.407 15.271L174.134 27.7534H184.548Z" fill="#414042"/>
<path d="M209.199 35.7209L203.399 26.2927H202.872H196.413V35.7209H194.436V13.1464H202.872C207.222 13.1464 210.122 15.8022 210.122 19.7859C210.122 22.9729 208.408 25.2304 205.508 26.0271L211.572 35.7209H209.199ZM196.413 24.6992H202.74C206.168 24.6992 208.145 22.8401 208.145 19.7859C208.145 16.8645 206.036 14.8726 202.74 14.8726H196.413V24.6992Z" fill="#414042"/>
<path d="M232.005 15.0054H223.436V35.7209H221.591V15.0054H212.891V13.1464H232.005V15.0054Z" fill="#414042"/>
<path d="M233.453 32.5339L234.64 31.206C236.749 33.1978 239.121 34.393 242.021 34.393C245.976 34.393 248.481 32.6667 248.481 30.1436C248.481 28.019 246.899 26.6911 242.417 25.3631C236.485 23.6369 234.508 21.9106 234.508 18.8564C234.508 15.271 237.408 13.0135 242.285 13.0135C245.053 13.0135 247.69 13.9431 249.799 15.6694L248.612 17.1301C246.767 15.5366 244.131 14.7398 242.285 14.7398C238.594 14.7398 236.353 16.3333 236.353 18.8564C236.353 20.981 237.803 22.0434 242.681 23.5041C248.349 25.2304 250.458 26.9566 250.458 30.0108C250.458 33.729 247.031 36.252 241.89 36.252C238.726 36.1192 235.694 34.7913 233.453 32.5339Z" fill="#414042"/>
<path d="M40.0727 43.6883L43.6319 41.6964L42.8409 38.5094C43.7637 37.7127 44.5546 36.9159 45.3455 35.9864L48.3774 36.7832L50.3547 33.1978L48.1138 30.9403C48.5092 29.878 48.9047 28.6829 49.0365 27.4878L52.0684 26.5582V22.4417L49.0365 21.5122C48.9047 20.317 48.5092 19.1219 48.1138 18.0596L50.3547 15.8021L48.3774 12.2168L45.3455 13.0135C44.5546 12.084 43.7637 11.2872 42.8409 10.4905L43.6319 7.43628L40.0727 5.31161L37.8318 7.56907C36.6454 7.17069 35.459 6.77232 34.2726 6.63953L33.3499 3.58533H29.2634L28.4725 6.63953C27.2861 6.77232 26.0998 7.17069 25.0452 7.56907L22.8042 5.31161L19.2451 7.30348L20.036 10.3577C19.1133 11.1544 18.3224 11.9512 17.5314 12.8807L14.4996 12.084L12.5223 15.6693L14.7632 17.9268C14.3677 18.9891 13.9723 20.1842 13.8405 21.3794L10.8086 22.3089V26.5582L13.8405 27.4878C13.9723 28.6829 14.3677 29.878 14.7632 30.9403L12.3904 33.1978L14.3677 36.7832L17.3996 35.9864C18.1905 36.9159 18.9815 37.7127 19.9042 38.5094L19.1133 41.5636L22.6724 43.5555L24.9134 41.2981C25.9679 41.6964 27.1543 42.0948 28.3407 42.2276L29.2634 45.2818H33.3499L34.2726 42.2276C35.459 42.0948 36.6454 41.6964 37.7 41.2981L40.0727 43.6883ZM31.3726 37.8455C23.9906 37.8455 18.0587 31.8699 18.0587 24.4336C18.0587 16.9972 23.9906 11.0216 31.3726 11.0216C38.6227 11.0216 44.6864 16.9972 44.6864 24.4336C44.6864 31.8699 38.7545 37.8455 31.3726 37.8455Z" fill="#16C3C6"/>
<path d="M62.8784 13.4119C55.4965 13.4119 49.5645 7.43631 49.5645 0H46.5327H44.819H42.0508V1.99187L45.0827 2.92141C45.2145 4.11653 45.6099 5.31165 46.0054 6.37398L43.7644 8.63144L45.7418 12.2168L48.7736 11.4201C49.5645 12.3496 50.3555 13.1463 51.2782 13.9431L50.4873 16.9973L54.0464 18.9892L56.2874 16.7317C57.3419 17.1301 58.5283 17.5285 59.7147 17.6612L60.6375 20.7154H62.6148V17.9268V13.4119H62.8784Z" fill="#16C3C6"/>
<path d="M16.7412 42.4932L18.9821 40.2357L17.0048 36.6504L13.973 37.4471C13.182 36.5176 12.3911 35.7208 11.4684 34.9241L12.1275 31.8699L8.56833 29.878L6.32738 32.1355C5.27282 31.7371 4.08643 31.3387 2.90005 31.2059L1.97731 28.1517H0V30.9403V35.7208C7.25012 35.7208 13.3139 41.6964 13.3139 49.1328H16.3457H17.9276H20.6958V47.1409L17.6639 46.2113C17.5321 44.7506 17.2685 43.6883 16.7412 42.4932Z" fill="#16C3C6"/>
<path d="M60.7683 28.019L59.8456 31.0732C58.6592 31.206 57.4728 31.6044 56.4182 32.0028L54.1773 29.7453L50.6181 31.87L51.4091 34.9242C50.4863 35.7209 49.6954 36.5177 48.9045 37.4472L45.8726 36.6505L43.8953 40.2358L46.1363 42.4933C45.7408 43.5556 45.3453 44.7507 45.2135 45.9458L42.1816 46.8754V48.8673H44.818H46.3999H49.4318C49.4318 41.4309 55.3637 35.4553 62.7456 35.4553V30.6748V27.8862H60.7683V28.019Z" fill="#16C3C6"/>
<path d="M1.97827 20.981L2.90101 17.9268C4.08739 17.794 5.27378 17.3957 6.32834 16.9973L8.56929 19.2547L12.1284 17.2629L11.3375 14.2087C12.2603 13.2791 13.183 12.3496 13.8421 11.4201L16.874 12.2168L18.8513 8.63144L16.6103 6.37398C17.0058 5.31165 17.4013 4.11653 17.5331 2.92141L20.5649 1.99187V0H17.7967H16.2149H13.183C13.183 7.43631 7.25108 13.4119 -0.130859 13.4119V18.1924V20.981H1.97827Z" fill="#16C3C6"/>
<path d="M42.0502 24.832C41.9183 24.5664 41.7865 24.4336 41.6547 24.168C41.7865 24.0352 41.9183 23.9024 42.182 23.7696C42.0502 23.7696 41.7865 23.7696 41.6547 23.6368C41.9183 23.6368 42.0502 23.3713 42.0502 23.1057C42.0502 22.8401 42.0502 22.7073 41.9183 22.4417C41.5229 22.5745 40.9956 22.3089 40.7319 22.0434C40.6001 22.0434 40.6001 22.1761 40.4683 22.1761C40.2047 21.9106 39.8092 21.7778 39.4137 21.9106C39.2819 21.9106 39.1501 21.9106 39.0183 21.7778C38.8865 21.645 38.8865 21.5122 38.7546 21.3794C38.491 21.1138 37.9637 21.3794 37.5683 21.645C37.1728 21.3794 36.7773 21.1138 36.5137 21.3794C36.2501 21.2466 36.3819 20.8482 36.2501 20.4499C36.1182 19.9187 35.4591 19.9187 34.9319 19.7859C34.9319 19.5203 34.8 19.3875 34.8 19.1219C35.0637 19.1219 35.0637 18.7236 34.9319 18.5908C34.8 18.3252 34.5364 17.9268 34.1409 17.794C33.6136 17.6612 33.2182 18.1924 32.6909 17.9268C32.8227 18.0596 32.6909 18.3252 32.4273 18.3252C32.2954 18.3252 32.0318 18.3252 31.9 18.3252C31.1091 18.1924 30.45 19.1219 30.7136 19.7859C30.3181 19.3875 29.7909 19.2547 29.2636 19.6531C29.2636 19.5203 29.1318 19.2547 28.9999 19.2547C28.8681 19.2547 28.6045 19.3875 28.6045 19.5203C28.4727 19.3875 28.209 19.2547 28.0772 19.1219C27.8136 19.2547 27.4181 19.2547 27.0226 19.1219C26.0999 18.5908 25.0453 18.3252 23.9908 18.458C23.8589 18.458 23.7271 18.458 23.5953 18.5908C23.4635 18.7236 23.4635 18.8564 23.3317 18.8564C23.1998 18.9892 22.8044 18.7236 22.6726 18.8564C22.5407 18.9892 22.6726 19.1219 22.6726 19.1219C22.8044 19.5203 22.9362 19.9187 23.068 20.3171C23.068 20.4499 23.068 20.4499 23.068 20.5826C23.068 20.7154 22.9362 20.8482 22.8044 20.981C22.4089 21.2466 22.0135 21.5122 21.618 21.9106C21.3544 22.3089 21.0907 22.8401 21.3544 23.2385L21.0907 23.1057C20.8271 23.3713 20.6953 23.6368 20.5634 23.9024C20.4316 24.168 20.5634 24.5664 20.8271 24.832C20.9589 24.9648 21.3544 25.0976 21.2225 25.2303C21.3544 25.0976 21.4862 25.0976 21.618 24.9648C22.1453 25.4959 23.068 25.0976 23.4635 25.6287L23.5953 25.7615C23.7271 25.7615 23.8589 25.6287 23.9908 25.4959C24.2544 25.3631 24.6499 25.4959 24.9135 25.4959C25.1771 25.4959 25.309 25.2303 25.4408 25.0976C26.0999 24.5664 27.2863 24.6992 27.8136 25.3631C27.8136 25.2303 28.0772 25.2303 28.209 25.3631C28.3408 25.4959 28.4727 25.6287 28.6045 25.4959C28.6045 25.7615 28.4727 26.0271 28.4727 26.2927C28.4727 26.5583 28.7363 26.8238 28.9999 26.8238C28.8681 26.9566 28.8681 27.2222 29.1318 27.355C29.2636 27.4878 29.5272 27.6206 29.5272 27.8862C29.5272 28.019 29.5272 28.2845 29.659 28.2845C29.2636 28.2845 28.8681 28.1518 28.6045 28.019C28.4727 27.8862 28.3408 28.1518 28.3408 28.2845C28.3408 28.4173 28.3408 28.5501 28.3408 28.8157C28.209 29.2141 27.6817 29.4797 27.6817 29.878C27.5499 29.7452 27.4181 29.878 27.4181 30.0108C27.2863 30.2764 27.6817 30.542 27.9454 30.4092C28.209 30.4092 28.4727 30.1436 28.7363 30.1436C28.9999 30.1436 29.3954 30.2764 29.2636 30.542C29.3954 30.2764 29.3954 30.0108 29.1318 29.878C29.3954 29.878 29.5272 29.7452 29.659 29.6125C30.1863 29.2141 30.45 28.6829 30.7136 28.1518C31.1091 28.019 31.5045 28.019 31.9 28.019C31.9 28.1518 32.0318 28.2845 32.1636 28.4173C32.0318 28.4173 32.0318 28.5501 31.9 28.5501C32.1636 28.9485 32.8227 28.9485 33.2182 28.9485C33.4818 28.9485 33.6136 28.9485 33.8773 28.9485C34.0091 28.9485 34.1409 28.9485 34.1409 28.9485C34.1409 28.9485 34.1409 29.2141 34.2727 29.2141C33.7455 29.3469 33.35 29.6125 32.9545 29.878C32.8227 30.0108 32.6909 30.1436 32.8227 30.2764H32.9545C33.0864 30.2764 33.0864 30.2764 33.2182 30.2764C33.4818 30.2764 33.8773 30.4092 34.0091 30.6748C34.2727 30.9404 34.2727 31.3387 34.0091 31.4715C33.8773 31.7371 34.2727 32.0027 34.6682 32.0027C34.9319 31.8699 35.1955 31.7371 35.4591 31.4715C35.7228 31.206 35.9864 31.0732 36.2501 31.0732C36.3819 30.9404 36.5137 30.8076 36.6455 30.6748L36.7773 30.542C36.9092 30.542 37.041 30.542 37.041 30.6748C37.3046 30.8076 37.7001 30.8076 37.8319 30.542C37.8319 30.2764 37.9637 30.0108 38.0955 29.878C37.7001 29.7452 37.3046 29.7452 36.9092 29.878C36.9092 30.0108 36.6455 30.1436 36.5137 30.0108C36.3819 30.0108 36.2501 29.878 36.1182 29.7452C35.9864 29.4797 35.8546 29.3469 35.7228 29.0813C35.7228 28.9485 35.7228 28.9485 35.7228 28.8157C35.7228 28.6829 35.8546 28.5501 35.9864 28.5501C36.3819 28.1518 36.9092 27.8862 37.4364 27.7534C38.0955 27.4878 38.7546 27.2222 39.4137 26.8238C39.5456 26.6911 39.8092 26.5583 39.8092 26.4255C39.8092 26.2927 39.6774 26.1599 39.8092 25.8943C39.8092 25.7615 40.0728 25.6287 40.2047 25.6287C40.3365 25.4959 40.4683 25.3631 40.3365 25.2303C40.8638 25.3631 41.6547 25.0976 41.6547 24.5664C42.0502 24.9648 42.0502 24.9648 42.0502 24.832Z" fill="#16C3C6"/>
<path d="M254.941 33.4634C255.469 33.4634 255.996 33.9946 255.996 34.5258C255.996 35.0569 255.469 35.5881 254.941 35.5881C254.414 35.5881 253.887 35.0569 253.887 34.5258C253.887 33.9946 254.282 33.4634 254.941 33.4634Z" fill="#16C3C6"/>
<path d="M264.564 28.4174V35.7209H262.982L262.85 34.6586C262.323 35.3225 261.4 35.8537 260.345 35.8537C258.764 35.8537 257.709 34.7913 257.709 33.0651V28.4174H259.423V32.6667C259.423 33.729 259.95 34.393 260.873 34.393C261.927 34.393 262.718 33.729 262.718 32.6667V28.5502H264.564V28.4174Z" fill="#16C3C6"/>
<path d="M273 34.1274V35.5881C272.868 35.5881 272.737 35.5881 272.341 35.5881C271.418 35.5881 271.023 35.1897 270.891 34.5258C270.364 35.1897 269.441 35.7209 268.386 35.7209C266.936 35.7209 266.014 34.9241 266.014 33.5962C266.014 31.7371 267.727 31.3388 269.177 31.206C270.1 31.0732 270.759 30.9404 270.759 30.542C270.759 30.0109 270.232 29.7453 269.309 29.7453C268.518 29.7453 267.859 30.0109 267.332 30.6748L266.277 29.6125C267.068 28.8157 268.123 28.4174 269.441 28.4174C271.286 28.4174 272.341 29.3469 272.341 30.8076V33.8618C272.341 34.1274 272.473 34.2602 272.736 34.2602H273V34.1274ZM270.627 32.7995V32.0027C270.364 32.1355 269.968 32.2683 269.309 32.4011C268.518 32.5339 267.727 32.6667 267.727 33.4634C267.727 33.9946 268.123 34.393 268.782 34.393C269.836 34.393 270.627 33.729 270.627 32.7995Z" fill="#16C3C6"/>
</g>
<defs>
<clipPath id="clip0_115_6785">
<rect width="273" height="49" fill="white"/>
</clipPath>
</defs>
</svg>
