<?xml version="1.0" encoding="utf-8"?>
<!-- Generator: Adobe Illustrator 25.2.1, SVG Export Plug-In . SVG Version: 6.00 Build 0)  -->
<svg version="1.1" id="Слой_1" xmlns="http://www.w3.org/2000/svg" xmlns:xlink="http://www.w3.org/1999/xlink" x="0px" y="0px"
	 viewBox="0 0 157.9 37.3" style="enable-background:new 0 0 157.9 37.3;" xml:space="preserve">
<style type="text/css">
	.st0{fill:#FFFFFF;}
	.st1{fill:#16C3C6;}
</style>
<g>
	<g>
		<path class="st0" d="M56.2,15l1.9-2.6c1.4,1.4,3.3,2.1,5.4,2.1c2.1,0,3.3-0.7,3.3-2c0-1.2-1.2-1.5-3.5-2.2c-3-0.9-6.4-1.9-6.4-5.4
			c0-3.1,2.6-5,6.7-5C66,0,68,0.7,69.9,2.1L68,4.6c-1.3-1-2.9-1.6-4.7-1.6c-1.9,0-3.1,0.7-3.1,1.8c0,1.1,1.3,1.7,3.8,2.3
			c3.2,0.9,6.3,1.9,6.3,5.1c0,3.3-2.6,5.2-6.9,5.2C60.6,17.5,58,16.6,56.2,15z"/>
		<path class="st0" d="M88,0.2l-6.2,17h-4.3l-6.2-17h3.7l4.7,13.7l4.7-13.7H88z"/>
		<path class="st0" d="M90.8,0.2h3.4v17h-3.4V0.2z"/>
		<path class="st0" d="M112.2,3.4h-5.9v13.9h-3.4V3.4h-5.9V0.2h15.2V3.4z"/>
		<path class="st0" d="M69.3,25.1c0,3-2.2,5-5.5,5h-5.3v7H57v-17h6.8C67.1,20.1,69.3,22.1,69.3,25.1z M67.8,25.1
			c0-2.3-1.5-3.7-4.1-3.7h-5.2v7.4h5.2C66.3,28.8,67.8,27.4,67.8,25.1z"/>
		<path class="st0" d="M82,32.4h-9l-2,4.7h-1.5l7.2-17h1.7l7.2,17H84L82,32.4z M81.5,31.1l-3.9-9.4l-4,9.4H81.5z"/>
		<path class="st0" d="M100.1,37.1L95.7,30h-0.4h-4.9v7.1h-1.5v-17h6.4c3.3,0,5.5,2,5.5,5c0,2.4-1.3,4.1-3.5,4.7l4.6,7.3H100.1z
			 M90.4,28.7h4.8c2.6,0,4.1-1.4,4.1-3.7c0-2.2-1.6-3.7-4.1-3.7h-4.8V28.7z"/>
		<path class="st0" d="M117.5,21.5H111v15.6h-1.5V21.5h-6.5v-1.4h14.5V21.5z"/>
		<path class="st0" d="M118.5,34.7l0.9-1c1.6,1.5,3.4,2.4,5.6,2.4c3,0,4.9-1.3,4.9-3.2c0-1.6-1.2-2.6-4.6-3.6c-4.5-1.3-6-2.6-6-4.9
			c0-2.7,2.2-4.4,5.9-4.4c2.1,0,4.1,0.7,5.7,2l-0.9,1.1c-1.4-1.2-3.4-1.8-4.8-1.8c-2.8,0-4.5,1.2-4.5,3.1c0,1.6,1.1,2.4,4.8,3.5
			c4.3,1.3,5.9,2.6,5.9,4.9c0,2.8-2.6,4.7-6.5,4.7C122.5,37.3,120.2,36.4,118.5,34.7z"/>
	</g>
	<g>
		<circle class="st1" cx="134.6" cy="36.3" r="0.8"/>
		<path class="st1" d="M139.2,32.6c0.6,0,1.1,0.4,1.3,0.9l1.3-0.4c-0.3-1.1-1.3-1.7-2.5-1.7c-1.7,0-2.8,1.1-2.8,2.9
			c0,1.7,1.1,2.9,2.8,2.9c1.2,0,2.2-0.6,2.5-1.7l-1.3-0.4c-0.2,0.6-0.7,0.9-1.3,0.9c-0.9,0-1.4-0.7-1.4-1.8S138.4,32.6,139.2,32.6z"
			/>
		<path class="st1" d="M145.2,31.5c-1.7,0-2.9,1.1-2.9,2.9c0,1.7,1.1,2.9,2.9,2.9c1.7,0,2.9-1.1,2.9-2.9
			C148.1,32.6,146.9,31.5,145.2,31.5z M145.2,36.1c-0.9,0-1.5-0.7-1.5-1.8c0-1.1,0.6-1.8,1.5-1.8c0.9,0,1.5,0.7,1.5,1.8
			C146.7,35.4,146.1,36.1,145.2,36.1z"/>
		<path class="st1" d="M156,31.5c-0.9,0-1.6,0.4-2,1.1c-0.3-0.7-0.9-1.1-1.7-1.1c-0.8,0-1.4,0.3-1.8,0.9l-0.1-0.8h-1.2v5.5h1.3v-3.2
			c0-0.8,0.6-1.3,1.3-1.3c0.7,0,1,0.5,1,1.3v3.2h1.3v-3.2c0-0.8,0.6-1.3,1.3-1.3c0.7,0,1,0.5,1,1.3v3.2h1.3v-3.5
			C157.9,32.3,157.2,31.5,156,31.5z"/>
	</g>
	<g>
		<path class="st1" d="M30.4,33.1l2.7-1.5l-0.6-2.3c0.7-0.6,1.3-1.2,1.9-1.9l2.3,0.6l1.5-2.7l-1.7-1.7c0.3-0.8,0.6-1.7,0.7-2.6
			l2.3-0.7v-3.1l-2.3-0.7c-0.1-0.9-0.4-1.8-0.7-2.6l1.7-1.7l-1.5-2.7L34.4,10c-0.6-0.7-1.2-1.3-1.9-1.9l0.6-2.3l-2.7-1.5l-1.7,1.7
			c-0.8-0.3-1.7-0.6-2.6-0.7l-0.7-2.3h-3.1l-0.7,2.3c-0.9,0.1-1.8,0.4-2.6,0.7l-1.7-1.7l-2.7,1.5l0.6,2.3c-0.7,0.6-1.3,1.2-1.9,1.9
			l-2.3-0.6l-1.5,2.7l1.7,1.7c-0.3,0.8-0.6,1.7-0.7,2.6l-2.3,0.7v3.1l2.3,0.7c0.1,0.9,0.4,1.8,0.7,2.6l-1.7,1.7l1.5,2.7l2.3-0.6
			c0.6,0.7,1.2,1.3,1.9,1.9l-0.6,2.3l2.7,1.5l1.7-1.7c0.8,0.3,1.7,0.6,2.6,0.7l0.7,2.3h3.1l0.7-2.3c0.9-0.1,1.8-0.4,2.6-0.7
			L30.4,33.1z M23.8,28.7c-5.6,0-10.1-4.5-10.1-10.1c0-5.6,4.5-10.1,10.1-10.1c5.6,0,10.1,4.5,10.1,10.1
			C33.9,24.2,29.4,28.7,23.8,28.7z"/>
		<path class="st1" d="M47.7,10.3c-5.6,0-10.1-4.5-10.1-10.1h-2.3H34h-2.1v1.5l2.3,0.7c0.1,0.9,0.4,1.8,0.7,2.6l-1.7,1.7l1.5,2.7
			l2.3-0.6c0.6,0.7,1.2,1.3,1.9,1.9l-0.6,2.3l2.7,1.5l1.7-1.7c0.8,0.3,1.7,0.6,2.6,0.7l0.7,2.3h1.5l0-2.1c0,0,0,0,0,0V10.3z"/>
		<path class="st1" d="M12.7,32.3l1.7-1.7l-1.5-2.7l-2.3,0.6c-0.6-0.7-1.2-1.3-1.9-1.9l0.6-2.3l-2.7-1.5l-1.7,1.7
			C4,24,3.1,23.8,2.2,23.6l-0.7-2.3H0l0,2.1c0,0,0,0,0,0V27c5.6,0,10.1,4.5,10.1,10.1h2.3h1.2h2.1v-1.5l-2.3-0.7
			C13.3,34,13.1,33.1,12.7,32.3z"/>
		<path class="st1" d="M46.1,21.3l-0.7,2.3c-0.9,0.1-1.8,0.4-2.6,0.7l-1.7-1.7l-2.7,1.5l0.6,2.3c-0.7,0.6-1.3,1.2-1.9,1.9l-2.3-0.6
			l-1.5,2.7l1.7,1.7c-0.3,0.8-0.6,1.7-0.7,2.6l-2.3,0.7v1.5H34h1.2h2.3c0-5.6,4.5-10.1,10.1-10.1v-3.6c0,0,0,0,0,0l0-2.1H46.1z"/>
		<path class="st1" d="M1.5,16l0.7-2.3C3.1,13.5,4,13.3,4.8,13l1.7,1.7l2.7-1.5l-0.6-2.3c0.7-0.6,1.3-1.2,1.9-1.9l2.3,0.6l1.5-2.7
			L12.7,5c0.3-0.8,0.6-1.7,0.7-2.6l2.3-0.7V0.2h-2.1h-1.2h-2.3c0,5.6-4.5,10.1-10.1,10.1v3.6c0,0,0,0,0,0L0,16H1.5z"/>
		<path class="st1" d="M31.9,18.9c-0.1-0.2-0.2-0.3-0.3-0.5c0.1-0.1,0.2-0.2,0.4-0.3c-0.1,0-0.3,0-0.4-0.1c0.2,0,0.3-0.2,0.3-0.3
			c0-0.2,0-0.3-0.1-0.5c-0.3,0.1-0.7-0.1-0.9-0.3c-0.1,0-0.1,0.1-0.2,0.1c-0.2-0.2-0.5-0.3-0.8-0.2c-0.1,0-0.2,0-0.3-0.1
			c-0.1-0.1-0.1-0.2-0.2-0.3c-0.2-0.2-0.6,0-0.9,0.2c-0.3-0.2-0.6-0.4-0.8-0.2c-0.2-0.1-0.1-0.4-0.2-0.7c-0.1-0.4-0.6-0.4-1-0.5
			c0-0.2-0.1-0.3-0.1-0.5c0.2,0,0.2-0.3,0.1-0.4c-0.1-0.2-0.3-0.5-0.6-0.6c-0.4-0.1-0.7,0.3-1.1,0.1c0.1,0.1,0,0.3-0.2,0.3
			c-0.1,0-0.3,0-0.4,0c-0.6-0.1-1.1,0.6-0.9,1.1c-0.3-0.3-0.7-0.4-1.1-0.1c0-0.1,0-0.3-0.2-0.3c-0.1,0-0.3,0.1-0.3,0.2
			c-0.1-0.1-0.3-0.2-0.4-0.3c-0.2,0.1-0.5,0.1-0.8,0c-0.7-0.4-1.5-0.6-2.3-0.5c-0.1,0-0.2,0-0.3,0.1c-0.1,0.1-0.1,0.2-0.2,0.2
			c-0.1,0.1-0.4-0.1-0.5,0c-0.1,0.1,0,0.2,0,0.2c0.1,0.3,0.2,0.6,0.3,0.9c0,0.1,0,0.1,0,0.2c0,0.1-0.1,0.2-0.2,0.3
			c-0.3,0.2-0.6,0.4-0.9,0.7c-0.2,0.3-0.4,0.7-0.2,1c-0.1,0-0.1-0.1-0.2-0.1c-0.2,0.2-0.3,0.4-0.4,0.6c-0.1,0.2,0,0.5,0.2,0.7
			c0.1,0.1,0.4,0.2,0.3,0.3c0.1-0.1,0.2-0.1,0.3-0.2c0.4,0.4,1.1,0.1,1.4,0.5c0,0,0.1,0.1,0.1,0.1c0.1,0,0.2-0.1,0.3-0.2
			c0.2-0.1,0.5,0,0.7,0c0.2,0,0.3-0.2,0.4-0.3c0.5-0.4,1.4-0.3,1.8,0.2c0-0.1,0.2-0.1,0.3,0c0.1,0.1,0.2,0.2,0.3,0.1
			c0,0.2-0.1,0.4-0.1,0.6c0,0.2,0.2,0.4,0.4,0.4c-0.1,0.1-0.1,0.3,0.1,0.4c0.1,0.1,0.3,0.2,0.3,0.4c0,0.1,0,0.3,0.1,0.3
			c-0.3,0-0.6-0.1-0.8-0.2c-0.1-0.1-0.2,0.1-0.2,0.2c0,0.1,0,0.2,0,0.4c-0.1,0.3-0.5,0.5-0.5,0.8c-0.1-0.1-0.2,0-0.2,0.1
			c-0.1,0.2,0.2,0.4,0.4,0.3c0.2,0,0.4-0.2,0.6-0.2c0.2,0,0.5,0.1,0.4,0.3c0.1-0.2,0.1-0.4-0.1-0.6c0.2,0,0.3-0.1,0.4-0.2
			c0.4-0.3,0.6-0.7,0.8-1.1c0.3-0.1,0.6-0.1,0.9-0.1c0,0.1,0.1,0.2,0.2,0.3c-0.1,0-0.1,0.1-0.2,0.1c0.2,0.3,0.7,0.3,1,0.3
			c0.2,0,0.3,0,0.5,0c0,0,0.2,0,0.2,0c0,0,0,0.2,0.1,0.2c-0.4,0.1-0.7,0.3-1,0.5c-0.1,0.1-0.2,0.2-0.1,0.3c0,0,0.1,0,0.1,0
			c0.1,0,0.1,0,0.2,0c0.2,0,0.5,0.1,0.6,0.3c0.2,0.2,0.2,0.5,0,0.6c-0.1,0.2,0.2,0.4,0.5,0.4c0.2-0.1,0.4-0.2,0.6-0.4
			c0.2-0.2,0.4-0.3,0.6-0.3c0.1-0.1,0.2-0.2,0.3-0.3c0,0,0.1-0.1,0.1-0.1c0.1,0,0.2,0,0.2,0.1c0.2,0.1,0.5,0.1,0.6-0.1
			c0-0.2,0.1-0.4,0.2-0.5c-0.3-0.1-0.6-0.1-0.9,0c0,0.1-0.2,0.2-0.3,0.1c-0.1,0-0.2-0.1-0.3-0.2c-0.1-0.2-0.2-0.3-0.3-0.5
			c0-0.1,0-0.1,0-0.2c0-0.1,0.1-0.2,0.2-0.2c0.3-0.3,0.7-0.5,1.1-0.6c0.5-0.2,1-0.4,1.5-0.7c0.1-0.1,0.3-0.2,0.3-0.3
			c0-0.1-0.1-0.2,0-0.4c0-0.1,0.2-0.2,0.3-0.2c0.1-0.1,0.2-0.2,0.1-0.3c0.4,0.1,1-0.1,1-0.5C31.9,19.1,31.9,19,31.9,18.9z"/>
	</g>
</g>
</svg>
