<svg width="261" height="47" viewBox="0 0 261 47" fill="none" xmlns="http://www.w3.org/2000/svg">
<g clip-path="url(#clip0_49_7730)">
<path d="M70.8262 31.4606L73.2207 28.1489C74.985 29.9321 77.3795 30.8237 80.0261 30.8237C82.6726 30.8237 84.1849 29.9321 84.1849 28.2763C84.1849 26.7479 82.6726 26.3658 79.774 25.4742C75.9932 24.3278 71.7084 23.0541 71.7084 18.5961C71.7084 14.6476 74.985 12.2275 80.1521 12.2275C83.1767 12.2275 85.8233 13.1191 88.2178 14.9023L85.6972 18.214C84.0589 16.9403 82.0425 16.176 79.774 16.176C77.3795 16.176 75.8672 17.0676 75.8672 18.4687C75.8672 19.8698 77.5056 20.634 80.6562 21.3983C84.689 22.5446 88.5958 23.8183 88.5958 27.8942C88.5958 32.0975 85.3192 34.5175 79.9001 34.5175C76.3713 34.6449 73.0946 33.4985 70.8262 31.4606Z" fill="white"/>
<path d="M110.903 12.6099L102.963 34.263H97.5441L89.7305 12.6099H94.2674L100.317 30.0597L106.24 12.6099H110.903Z" fill="white"/>
<path d="M118.717 12.6099H114.432V34.263H118.717V12.6099Z" fill="white"/>
<path d="M141.401 16.6857H134.092V34.263H129.681V16.6857H122.371V12.6099H141.401V16.6857Z" fill="white"/>
<path d="M161.187 18.9784C161.187 22.7996 158.414 25.347 154.255 25.347H147.576V34.263H145.686V12.6099H154.255C158.414 12.6099 161.187 15.1573 161.187 18.9784ZM159.296 18.9784C159.296 16.0489 157.406 14.2657 154.129 14.2657H147.576V23.6912H154.129C157.406 23.8185 159.296 22.0353 159.296 18.9784Z" fill="white"/>
<path d="M177.193 28.404H165.85L163.33 34.3904H161.439L170.513 12.7373H172.656L181.73 34.3904H179.713L177.193 28.404ZM176.437 26.6208L171.522 14.6479L166.48 26.6208H176.437Z" fill="white"/>
<path d="M200.004 34.263L194.458 25.2196H193.954H187.779V34.263H185.889V12.6099H193.954C198.113 12.6099 200.886 15.1573 200.886 18.9784C200.886 22.0353 199.247 24.2007 196.475 24.9649L202.272 34.263H200.004ZM187.779 23.6912H193.828C197.105 23.6912 198.995 21.908 198.995 18.9784C198.995 16.1763 196.979 14.2657 193.828 14.2657H187.779V23.6912Z" fill="white"/>
<path d="M221.805 14.3931H213.613V34.263H211.849V14.3931H203.531V12.6099H221.805V14.3931Z" fill="white"/>
<path d="M223.191 31.206L224.326 29.9323C226.342 31.8429 228.611 32.9892 231.383 32.9892C235.164 32.9892 237.558 31.3334 237.558 28.9133C237.558 26.8754 236.046 25.6017 231.761 24.328C226.09 22.6721 224.2 21.0163 224.2 18.0868C224.2 14.6477 226.972 12.4824 231.635 12.4824C234.282 12.4824 236.802 13.374 238.819 15.0298L237.684 16.4309C235.92 14.9025 233.4 14.1382 231.635 14.1382C228.106 14.1382 225.964 15.6667 225.964 18.0868C225.964 20.1247 227.35 21.1437 232.013 22.5448C237.432 24.2006 239.449 25.8564 239.449 28.7859C239.449 32.3523 236.172 34.7724 231.257 34.7724C228.232 34.645 225.334 33.3713 223.191 31.206Z" fill="white"/>
<path d="M38.3118 41.9051L41.7145 39.9945L40.9583 36.9376C41.8405 36.1734 42.5967 35.4092 43.3528 34.5176L46.2514 35.2818L48.1418 31.8428L45.9994 29.6774C46.3774 28.6585 46.7555 27.5121 46.8815 26.3658L49.7801 25.4742V21.5257L46.8815 20.6341C46.7555 19.4877 46.3774 18.3414 45.9994 17.3224L48.1418 15.1571L46.2514 11.7181L43.3528 12.4823C42.5967 11.5907 41.8405 10.8265 40.9583 10.0623L41.7145 7.13273L38.3118 5.09479L36.1693 7.2601C35.0351 6.87799 33.9009 6.49588 32.7666 6.3685L31.8844 3.43896H27.9776L27.2215 6.3685C26.0872 6.49588 24.953 6.87799 23.9448 7.2601L21.8024 5.09479L18.3997 7.00536L19.1558 9.9349C18.2736 10.6991 17.5175 11.4634 16.7613 12.355L13.8627 11.5907L11.9723 15.0297L14.1148 17.1951C13.7367 18.214 13.3586 19.3604 13.2326 20.5067L10.334 21.3983V25.4742L13.2326 26.3658C13.3586 27.5121 13.7367 28.6585 14.1148 29.6774L11.8463 31.8428L13.7367 35.2818L16.6353 34.5176C17.3914 35.4092 18.1476 36.1734 19.0298 36.9376L18.2736 39.8671L21.6763 41.7777L23.8188 39.6124C24.827 39.9945 25.9612 40.3766 27.0955 40.504L27.9776 43.4335H31.8844L32.7666 40.504C33.9009 40.3766 35.0351 39.9945 36.0433 39.6124L38.3118 41.9051ZM29.9941 36.3008C22.9366 36.3008 17.2654 30.569 17.2654 23.4363C17.2654 16.3035 22.9366 10.5718 29.9941 10.5718C36.9255 10.5718 42.7227 16.3035 42.7227 23.4363C42.7227 30.569 37.0515 36.3008 29.9941 36.3008Z" fill="#16C3C6"/>
<path d="M60.1152 12.8645C53.0578 12.8645 47.3866 7.13279 47.3866 0H44.488H42.8497H40.2031V1.91057L43.1017 2.80217C43.2278 3.94851 43.6058 5.09485 43.9839 6.11382L41.8415 8.27913L43.7319 11.7182L46.6305 10.9539C47.3866 11.8455 48.1428 12.6098 49.025 13.374L48.2688 16.3035L51.6715 18.2141L53.8139 16.0488C54.8221 16.4309 55.9564 16.813 57.0906 16.9404L57.9728 19.8699H59.8632V17.1951V12.8645H60.1152Z" fill="#16C3C6"/>
<path d="M16.0053 40.759L18.1478 38.5937L16.2574 35.1547L13.3588 35.9189C12.6026 35.0273 11.8465 34.2631 10.9643 33.4989L11.5944 30.5693L8.19169 28.6588L6.04925 30.8241C5.04104 30.442 3.90681 30.0598 2.77257 29.9325L1.89039 27.0029H0V29.6777V34.2631C6.93143 34.2631 12.7286 39.9948 12.7286 47.1276H15.6272H17.1395H19.7861V45.217L16.8875 44.3254C16.7615 42.9243 16.5094 41.9054 16.0053 40.759Z" fill="#16C3C6"/>
<path d="M58.0978 26.8754L57.2156 29.805C56.0814 29.9323 54.9471 30.3144 53.9389 30.6966L51.7965 28.5312L48.3938 30.5692L49.15 33.4987C48.2678 34.263 47.5116 35.0272 46.7555 35.9188L43.8569 35.1546L41.9665 38.5936L44.1089 40.7589C43.7308 41.7779 43.3527 42.9242 43.2267 44.0705L40.3281 44.9621V46.8727H42.8486H44.361H47.2596C47.2596 39.7399 52.9307 34.0082 59.9882 34.0082V29.4228V26.748H58.0978V26.8754Z" fill="#16C3C6"/>
<path d="M1.88946 20.1247L2.77165 17.1951C3.90588 17.0677 5.04012 16.6856 6.04832 16.3035L8.19077 18.4688L11.5935 16.5583L10.8373 13.6287C11.7195 12.7371 12.6017 11.8455 13.2318 10.9539L16.1304 11.7182L18.0208 8.27913L15.8784 6.11382C16.2564 5.09485 16.6345 3.94851 16.7605 2.80217L19.6591 1.91057V0H17.0126H15.5003H12.6017C12.6017 7.13279 6.93051 12.8645 -0.126953 12.8645V17.4499V20.1247H1.88946Z" fill="#16C3C6"/>
<path d="M40.203 23.8184C40.077 23.5636 39.951 23.4362 39.8249 23.1815C39.951 23.0541 40.077 22.9268 40.329 22.7994C40.203 22.7994 39.951 22.7994 39.8249 22.672C40.077 22.672 40.203 22.4173 40.203 22.1625C40.203 21.9078 40.203 21.7804 40.077 21.5257C39.6989 21.653 39.1948 21.3983 38.9428 21.1436C38.8167 21.1436 38.8167 21.2709 38.6907 21.2709C38.4387 21.0162 38.0606 20.8888 37.6825 21.0162C37.5565 21.0162 37.4304 21.0162 37.3044 20.8888C37.1784 20.7614 37.1784 20.6341 37.0524 20.5067C36.8003 20.252 36.2962 20.5067 35.9181 20.7614C35.5401 20.5067 35.162 20.252 34.9099 20.5067C34.6579 20.3793 34.7839 19.9972 34.6579 19.6151C34.5318 19.1056 33.9017 19.1056 33.3976 18.9783C33.3976 18.7235 33.2716 18.5961 33.2716 18.3414C33.5236 18.3414 33.5236 17.9593 33.3976 17.8319C33.2716 17.5772 33.0195 17.1951 32.6415 17.0677C32.1373 16.9403 31.7593 17.4498 31.2552 17.1951C31.3812 17.3224 31.2552 17.5772 31.0031 17.5772C30.8771 17.5772 30.625 17.5772 30.499 17.5772C29.7429 17.4498 29.1127 18.3414 29.3648 18.9783C28.9867 18.5961 28.4826 18.4688 27.9785 18.8509C27.9785 18.7235 27.8525 18.4688 27.7264 18.4688C27.6004 18.4688 27.3484 18.5961 27.3484 18.7235C27.2223 18.5961 26.9703 18.4688 26.8443 18.3414C26.5922 18.4688 26.2141 18.4688 25.836 18.3414C24.9539 17.8319 23.9457 17.5772 22.9374 17.7045C22.8114 17.7045 22.6854 17.7045 22.5594 17.8319C22.4333 17.9593 22.4333 18.0867 22.3073 18.0867C22.1813 18.214 21.8032 17.9593 21.6772 18.0867C21.5512 18.214 21.6772 18.3414 21.6772 18.3414C21.8032 18.7235 21.9292 19.1056 22.0553 19.4877C22.0553 19.6151 22.0553 19.6151 22.0553 19.7425C22.0553 19.8699 21.9292 19.9972 21.8032 20.1246C21.4251 20.3793 21.0471 20.6341 20.669 21.0162C20.4169 21.3983 20.1649 21.9078 20.4169 22.2899L20.1649 22.1625C19.9128 22.4173 19.7868 22.672 19.6608 22.9268C19.5347 23.1815 19.6608 23.5636 19.9128 23.8184C20.0388 23.9457 20.4169 24.0731 20.2909 24.2005C20.4169 24.0731 20.543 24.0731 20.669 23.9457C21.1731 24.4552 22.0553 24.0731 22.4333 24.5826L22.5594 24.71C22.6854 24.71 22.8114 24.5826 22.9374 24.4552C23.1895 24.3278 23.5676 24.4552 23.8196 24.4552C24.0717 24.4552 24.1977 24.2005 24.3237 24.0731C24.9539 23.5636 26.0881 23.691 26.5922 24.3278C26.5922 24.2005 26.8443 24.2005 26.9703 24.3278C27.0963 24.4552 27.2223 24.5826 27.3484 24.4552C27.3484 24.71 27.2223 24.9647 27.2223 25.2194C27.2223 25.4742 27.4744 25.7289 27.7264 25.7289C27.6004 25.8563 27.6004 26.111 27.8525 26.2384C27.9785 26.3658 28.2305 26.4932 28.2305 26.7479C28.2305 26.8753 28.2305 27.13 28.3566 27.13C27.9785 27.13 27.6004 27.0026 27.3484 26.8753C27.2223 26.7479 27.0963 27.0026 27.0963 27.13C27.0963 27.2574 27.0963 27.3848 27.0963 27.6395C26.9703 28.0216 26.4662 28.2764 26.4662 28.6585C26.3401 28.5311 26.2141 28.6585 26.2141 28.7858C26.0881 29.0406 26.4662 29.2953 26.7182 29.168C26.9703 29.168 27.2223 28.9132 27.4744 28.9132C27.7264 28.9132 28.1045 29.0406 27.9785 29.2953C28.1045 29.0406 28.1045 28.7858 27.8525 28.6585C28.1045 28.6585 28.2305 28.5311 28.3566 28.4037C28.8607 28.0216 29.1127 27.5121 29.3648 27.0026C29.7429 26.8753 30.1209 26.8753 30.499 26.8753C30.499 27.0026 30.625 27.13 30.7511 27.2574C30.625 27.2574 30.625 27.3848 30.499 27.3848C30.7511 27.7669 31.3812 27.7669 31.7593 27.7669C32.0113 27.7669 32.1373 27.7669 32.3894 27.7669C32.5154 27.7669 32.6415 27.7669 32.6415 27.7669C32.6415 27.7669 32.6415 28.0216 32.7675 28.0216C32.2634 28.149 31.8853 28.4037 31.5072 28.6585C31.3812 28.7858 31.2552 28.9132 31.3812 29.0406H31.5072C31.6332 29.0406 31.6332 29.0406 31.7593 29.0406C32.0113 29.0406 32.3894 29.168 32.5154 29.4227C32.7675 29.6774 32.7675 30.0596 32.5154 30.1869C32.3894 30.4417 32.7675 30.6964 33.1456 30.6964C33.3976 30.569 33.6497 30.4417 33.9017 30.1869C34.1538 29.9322 34.4058 29.8048 34.6579 29.8048C34.7839 29.6774 34.9099 29.5501 35.0359 29.4227L35.162 29.2953C35.288 29.2953 35.414 29.2953 35.414 29.4227C35.6661 29.5501 36.0442 29.5501 36.1702 29.2953C36.1702 29.0406 36.2962 28.7858 36.4222 28.6585C36.0442 28.5311 35.6661 28.5311 35.288 28.6585C35.288 28.7858 35.0359 28.9132 34.9099 28.7858C34.7839 28.7858 34.6579 28.6585 34.5318 28.5311C34.4058 28.2764 34.2798 28.149 34.1538 27.8942C34.1538 27.7669 34.1538 27.7669 34.1538 27.6395C34.1538 27.5121 34.2798 27.3848 34.4058 27.3848C34.7839 27.0026 35.288 26.7479 35.7921 26.6205C36.4222 26.3658 37.0524 26.111 37.6825 25.7289C37.8085 25.6016 38.0606 25.4742 38.0606 25.3468C38.0606 25.2194 37.9345 25.0921 38.0606 24.8373C38.0606 24.71 38.3126 24.5826 38.4387 24.5826C38.5647 24.4552 38.6907 24.3278 38.5647 24.2005C39.0688 24.3278 39.8249 24.0731 39.8249 23.5636C40.203 23.9457 40.203 23.9457 40.203 23.8184Z" fill="#16C3C6"/>
<path d="M243.735 32.0977C244.239 32.0977 244.743 32.6071 244.743 33.1166C244.743 33.6261 244.239 34.1356 243.735 34.1356C243.231 34.1356 242.727 33.6261 242.727 33.1166C242.727 32.6071 243.105 32.0977 243.735 32.0977Z" fill="#16C3C6"/>
<path d="M252.934 27.2573V34.2627H251.422L251.296 33.2438C250.792 33.8806 249.91 34.3901 248.901 34.3901C247.389 34.3901 246.381 33.3711 246.381 31.7153V27.2573H248.019V31.3332C248.019 32.3522 248.523 32.989 249.405 32.989C250.414 32.989 251.17 32.3522 251.17 31.3332V27.3847H252.934V27.2573Z" fill="#16C3C6"/>
<path d="M261 32.7343V34.1354C260.874 34.1354 260.748 34.1354 260.37 34.1354C259.487 34.1354 259.109 33.7533 258.983 33.1164C258.479 33.7533 257.597 34.2627 256.589 34.2627C255.202 34.2627 254.32 33.4985 254.32 32.2248C254.32 30.4416 255.959 30.0595 257.345 29.9321C258.227 29.8047 258.857 29.6774 258.857 29.2953C258.857 28.7858 258.353 28.531 257.471 28.531C256.715 28.531 256.085 28.7858 255.581 29.4226L254.572 28.4037C255.329 27.6394 256.337 27.2573 257.597 27.2573C259.361 27.2573 260.37 28.1489 260.37 29.55V32.4795C260.37 32.7343 260.496 32.8617 260.748 32.8617H261V32.7343ZM258.731 31.4606V30.6963C258.479 30.8237 258.101 30.9511 257.471 31.0785C256.715 31.2058 255.959 31.3332 255.959 32.0974C255.959 32.6069 256.337 32.989 256.967 32.989C257.975 32.989 258.731 32.3522 258.731 31.4606Z" fill="#16C3C6"/>
</g>
<defs>
<clipPath id="clip0_49_7730">
<rect width="261" height="47" fill="white"/>
</clipPath>
</defs>
</svg>
