<svg width="16" height="16" viewBox="0 0 16 16" fill="none" xmlns="http://www.w3.org/2000/svg">
<path d="M2.00086 7.81921C2.00086 4.47413 4.61933 2 7.99965 2C11.38 2 13.9984 4.47413 13.9984 7.81921C13.9984 11.1624 11.38 13.6384 7.99965 13.6384C7.39415 13.6384 6.81039 13.5582 6.26562 13.4078C6.15918 13.3789 6.04596 13.3879 5.94544 13.4333L4.75018 13.9586C4.67806 13.9906 4.59916 14.0044 4.52045 13.9988C4.44174 13.9931 4.36563 13.9681 4.29886 13.926C4.23208 13.884 4.17669 13.8261 4.13757 13.7576C4.09846 13.6891 4.07682 13.6119 4.07456 13.5331L4.03932 12.463C4.03706 12.3987 4.02189 12.3355 3.99471 12.2771C3.96753 12.2188 3.92889 12.1665 3.8811 12.1233C3.27967 11.5809 2.80084 10.9165 2.47654 10.1743C2.15225 9.43218 1.98995 8.62941 2.00048 7.81958L2.00086 7.81921ZM6.16027 6.72368L4.40075 9.52399C4.22491 9.78756 4.56084 10.0942 4.81092 9.89891L6.70504 8.4637C6.76722 8.41521 6.84382 8.38887 6.92268 8.38887C7.00154 8.38887 7.07814 8.41521 7.14032 8.4637L8.53842 9.51424C8.63807 9.58818 8.75188 9.64081 8.87277 9.66884C8.99365 9.69686 9.11901 9.69969 9.24103 9.67714C9.36305 9.6546 9.47912 9.60716 9.58201 9.53778C9.68489 9.46841 9.77239 9.37858 9.83903 9.27391L11.5986 6.4736C11.7744 6.21003 11.4385 5.90934 11.1884 6.09868L9.29427 7.53389C9.23313 7.5823 9.15742 7.60865 9.07943 7.60865C9.00145 7.60865 8.92574 7.5823 8.8646 7.53389L7.46463 6.48335C7.36512 6.40812 7.25105 6.35442 7.12966 6.32568C7.00827 6.29693 6.88223 6.29375 6.75954 6.31636C6.63686 6.33896 6.52023 6.38685 6.41706 6.45697C6.31389 6.5271 6.22644 6.61792 6.16027 6.72368Z" fill="#414042"/>
</svg>
