<svg width="16" height="16" viewBox="0 0 16 16" fill="none" xmlns="http://www.w3.org/2000/svg">
<path d="M5.95304 10.0352C7.15163 11.2338 8.61567 12.1648 10.3143 12.8566C11.4936 13.337 12.4896 12.8354 12.897 11.6242C12.9701 11.4068 12.9751 11.1939 12.8965 10.9802C12.7065 10.4637 10.9061 9.15573 10.3675 9.12635C9.95433 9.10393 9.73062 9.3846 9.54145 9.66334C9.18397 10.1895 8.73075 10.1925 8.22521 9.96759C7.71658 9.74117 7.27147 9.45084 6.90446 9.08383C6.53732 8.71669 6.24699 8.27158 6.0207 7.76295C5.7957 7.25741 5.79866 6.80432 6.32495 6.44671C6.60356 6.25767 6.88436 6.03396 6.86181 5.62081C6.83255 5.08215 5.52456 3.28176 5.00807 3.09182C4.79428 3.01321 4.58139 3.01823 4.364 3.0913C3.15279 3.49865 2.65124 4.49465 3.13165 5.67403C3.82353 7.37262 4.75446 8.83666 5.95304 10.0352Z" fill="white"/>
<path d="M8.28547 3.69604C8.54938 3.65416 8.82052 3.64476 9.09101 3.66834C9.92477 3.7405 10.7181 4.1146 11.3249 4.72143C11.9136 5.31009 12.2757 6.07131 12.3445 6.86487C12.3679 7.13587 12.3566 7.40778 12.3106 7.6726C12.2779 7.861 12.4042 8.04038 12.5926 8.07311C12.6127 8.07659 12.6326 8.07827 12.6522 8.07827C12.8176 8.07827 12.9638 7.95958 12.9931 7.79116C13.0494 7.46744 13.0633 7.13561 13.0347 6.80494C12.9518 5.84927 12.5186 4.93535 11.8148 4.23161C11.0928 3.50957 10.1468 3.06447 9.15093 2.978C8.82425 2.94978 8.49655 2.96112 8.17696 3.01176C7.98804 3.04179 7.85918 3.21924 7.88907 3.40816C7.91897 3.59707 8.09629 3.72594 8.28547 3.69604Z" fill="white"/>
<path d="M11.4874 7.77398C11.5022 7.77578 11.5169 7.77668 11.5316 7.77668C11.7034 7.77668 11.8525 7.64885 11.8748 7.47398C11.8985 7.28661 11.9022 7.09511 11.8857 6.9049C11.8263 6.21946 11.5116 5.56006 10.9998 5.0482C10.4696 4.51804 9.77812 4.19137 9.0526 4.12848C8.84848 4.11083 8.64345 4.11482 8.44319 4.14034C8.25337 4.16456 8.11923 4.33815 8.14345 4.52784C8.16768 4.71766 8.34178 4.85168 8.53095 4.82758C8.68237 4.80825 8.83778 4.80529 8.99281 4.81869C9.55608 4.86753 10.0949 5.12294 10.5098 5.53802C10.9066 5.9348 11.1502 6.4415 11.1955 6.9647C11.2078 7.10606 11.2051 7.24795 11.1875 7.38661C11.1633 7.57643 11.2977 7.74975 11.4874 7.77398Z" fill="white"/>
<path d="M10.3669 7.5681C10.3748 7.56875 10.3827 7.569 10.3907 7.569C10.5712 7.569 10.7236 7.42893 10.7359 7.24606C10.7413 7.16681 10.7406 7.0855 10.7335 7.00431C10.6565 6.11668 9.87356 5.35856 8.95088 5.27867C8.87563 5.2721 8.80024 5.27042 8.72679 5.27338C8.53555 5.28125 8.38697 5.44259 8.39483 5.63369C8.40282 5.82493 8.56442 5.97326 8.75527 5.96552C8.79947 5.96372 8.84521 5.96488 8.89109 5.96887C9.46854 6.01887 9.99611 6.52055 10.0433 7.06423C10.0473 7.10985 10.0478 7.15521 10.0448 7.19903C10.0317 7.38988 10.1759 7.55521 10.3669 7.5681Z" fill="white"/>
</svg>
