<svg width="40" height="23" viewBox="0 0 40 23" fill="none" xmlns="http://www.w3.org/2000/svg">
<g clip-path="url(#clip0_153_20153)">
<path d="M38.4504 17.1975C38.3692 15.8039 38.6129 14.4417 38.1379 13.1231C37.4318 11.1547 35.5509 9.76114 33.4574 9.70489C32.6451 9.68615 31.8327 9.68615 31.0203 9.70489C30.6079 9.71114 30.3142 9.56117 30.0767 9.21747C29.1269 7.81144 28.1645 6.41166 27.2022 5.01188C25.6462 2.73723 23.4902 1.58741 20.7344 1.57491C18.8285 1.56867 16.9225 1.56867 15.0166 1.57491C12.3107 1.58741 10.1736 2.70599 8.63006 4.92439C7.63647 6.34917 6.67412 7.79894 5.67427 9.21747C5.53054 9.42369 5.28683 9.60491 5.04937 9.68615C2.84971 10.461 1.57491 12.2357 1.56866 14.5666C1.56866 15.1415 1.56866 15.7102 1.56866 16.2851C1.57491 16.8725 1.86862 17.1787 2.44353 17.185C2.98719 17.1912 3.52461 17.1975 4.06827 17.1787C4.19325 17.1725 4.36198 17.0787 4.43072 16.9725C6.01797 14.3479 9.64865 14.3354 11.2109 16.9663C11.3234 17.1537 11.4484 17.1912 11.6358 17.1912C13.2418 17.185 14.8416 17.185 16.4476 17.1912C17.0975 17.1912 17.4912 17.7161 17.2662 18.2661C17.1162 18.6285 16.8163 18.7535 16.4351 18.7535C15.0103 18.7535 13.5793 18.7535 12.1545 18.7535C11.7421 18.7535 11.7421 18.7535 11.7233 19.1722C11.6171 21.1219 9.97985 22.7216 8.01141 22.8028C6.01172 22.8903 4.25574 21.4531 3.97454 19.5034C3.96204 19.4221 3.94329 19.3409 3.93704 19.2534C3.8808 18.7472 3.88705 18.7597 3.36213 18.7472C2.84346 18.7347 2.3123 18.766 1.80613 18.666C0.75629 18.466 0.000158379 17.5162 0.000158379 16.4476C0.000158379 15.4727 -0.0560828 14.4791 0.0813957 13.5168C0.431341 11.0484 1.83112 9.3487 4.10577 8.34886C4.31198 8.26137 4.5182 8.10514 4.64943 7.93017C5.53054 6.66787 6.39916 5.39307 7.26152 4.11827C8.56757 2.18732 10.3298 0.868774 12.5919 0.300113C13.3543 0.112643 14.1542 0.0251562 14.9353 0.00640916C16.8913 -0.031085 18.8535 -0.024836 20.8094 -0.00608888C24.0402 0.0314053 26.5835 1.38744 28.4332 4.03078C29.3143 5.29308 30.1829 6.56788 31.0391 7.84893C31.1703 8.04265 31.3078 8.11764 31.5452 8.11764C32.4388 8.12389 33.3387 8.09889 34.2261 8.19888C37.0756 8.51758 39.5877 10.9859 39.8877 13.8417C40.0314 15.2228 39.9689 16.6288 39.9752 18.0223C39.9752 18.4473 39.6127 18.7347 39.144 18.7347C38.2817 18.741 37.4131 18.7472 36.5507 18.7347C36.2882 18.7285 36.1945 18.7972 36.1758 19.0722C36.057 21.0906 34.5385 22.6466 32.5888 22.7841C30.6204 22.9278 28.8894 21.6218 28.4645 19.6658C28.4207 19.4659 28.3957 19.2534 28.402 19.0472C28.402 18.8035 28.3082 18.7347 28.0708 18.7347C26.646 18.7472 25.215 18.741 23.7902 18.741C23.6652 18.741 23.5402 18.741 23.4153 18.716C23.0341 18.641 22.7841 18.316 22.7966 17.9286C22.8091 17.5474 23.0841 17.2412 23.4715 17.1912C23.584 17.1787 23.7027 17.1787 23.8152 17.1787C25.3649 17.1787 26.921 17.1725 28.4707 17.185C28.6957 17.185 28.8207 17.11 28.9331 16.9163C30.4829 14.3417 34.1261 14.3542 35.6571 16.935C35.7571 17.11 35.8633 17.1912 36.0695 17.185C36.8569 17.1912 37.6255 17.1975 38.4504 17.1975ZM10.1736 18.9097C10.1673 17.6162 9.11748 16.5726 7.81769 16.5788C6.54289 16.5851 5.4993 17.6349 5.49305 18.916C5.49305 20.2033 6.54289 21.2593 7.83643 21.2593C9.12998 21.2593 10.1798 20.2033 10.1736 18.9097ZM34.6447 18.9097C34.6385 17.6162 33.5887 16.5663 32.2951 16.5788C31.0141 16.5851 29.9767 17.6224 29.9705 18.9097C29.9642 20.2033 31.0141 21.2593 32.3076 21.2593C33.5949 21.2593 34.651 20.2033 34.6447 18.9097Z" fill="#87898E"/>
<path d="M22.9217 9.70502C21.6094 9.70502 20.2971 9.70502 18.9848 9.70502C18.2912 9.70502 18.01 9.43006 18.0037 8.74892C17.9975 7.19916 17.9975 5.64941 18.0037 4.09965C18.0037 3.431 18.2912 3.1373 18.9536 3.1498C19.8909 3.16229 20.8345 3.1248 21.7594 3.23103C23.3779 3.4185 24.6839 4.23088 25.6463 5.53692C26.3462 6.48053 26.9836 7.46787 27.6522 8.43647C27.8397 8.70518 27.8834 8.99263 27.7272 9.29259C27.571 9.58629 27.3085 9.71127 26.9773 9.71127C25.6275 9.70502 24.2777 9.70502 22.9217 9.70502ZM25.5463 8.11777C25.1463 7.53661 24.7964 7.00544 24.4215 6.48677C23.8715 5.73064 23.1467 5.21822 22.2593 4.91827C21.4907 4.65581 20.697 4.7183 19.9097 4.69955C19.6535 4.6933 19.566 4.76829 19.5722 5.03075C19.5847 5.94311 19.591 6.86172 19.5722 7.77407C19.566 8.06153 19.6472 8.14277 19.9409 8.14277C21.6906 8.13027 23.4341 8.13652 25.1838 8.13652C25.2776 8.13652 25.3776 8.12402 25.5463 8.11777Z" fill="#87898E"/>
<path d="M12.1793 9.70483C11.0857 9.70483 9.99215 9.69859 8.89858 9.70483C8.54238 9.70483 8.23618 9.62985 8.05496 9.2924C7.87374 8.95495 7.96747 8.655 8.17369 8.36129C8.78609 7.48018 9.3735 6.58657 9.9984 5.71171C11.1857 4.04947 12.8167 3.1996 14.8539 3.14336C15.1164 3.13711 15.3726 3.13711 15.635 3.14336C16.1162 3.16211 16.4411 3.44331 16.4474 3.91824C16.4599 5.58673 16.4599 7.24897 16.4474 8.91746C16.4411 9.41738 16.1099 9.70483 15.5913 9.70483C14.4477 9.70483 13.3166 9.70483 12.1793 9.70483ZM10.2859 8.08009C10.3171 8.10508 10.3296 8.13008 10.3483 8.13008C11.7981 8.13633 13.2416 8.14258 14.6914 8.13008C14.7539 8.13008 14.8726 7.99885 14.8789 7.92386C14.8914 6.92402 14.8851 5.92417 14.8914 4.92433C14.8914 4.76186 14.8227 4.69312 14.6664 4.71186C14.4102 4.74311 14.1478 4.7681 13.8915 4.82435C12.0543 5.21179 11.1795 6.64906 10.2859 8.08009Z" fill="#87898E"/>
<path d="M19.2534 12.8356C19.0784 12.8356 18.8972 12.8481 18.7222 12.8356C18.316 12.7981 18.0348 12.4919 18.0161 12.0982C17.9973 11.7045 18.2598 11.3483 18.6597 11.3108C19.0472 11.2733 19.4471 11.2733 19.8408 11.3108C20.247 11.3483 20.5032 11.7045 20.4844 12.0982C20.4719 12.4919 20.1845 12.7981 19.7783 12.8356C19.6096 12.8543 19.4346 12.8356 19.2534 12.8356Z" fill="#87898E"/>
<path d="M20.0594 18.7597C19.6345 18.7535 19.2971 18.4098 19.3033 17.9786C19.3033 17.5474 19.647 17.21 20.0719 17.21C20.5031 17.21 20.8718 17.5849 20.8593 18.0098C20.8406 18.4223 20.4781 18.766 20.0594 18.7597Z" fill="#87898E"/>
<path d="M8.61136 18.9099C8.61761 19.3349 8.28016 19.6848 7.85523 19.6973C7.42404 19.7098 7.05535 19.3474 7.0616 18.9162C7.06785 18.4975 7.4178 18.1475 7.83648 18.1475C8.26141 18.1413 8.60511 18.485 8.61136 18.9099Z" fill="#87898E"/>
<path d="M33.0823 18.9346C33.0761 19.3658 32.7324 19.7032 32.3012 19.697C31.8638 19.697 31.5201 19.3283 31.5326 18.8908C31.5451 18.4659 31.9012 18.1285 32.3262 18.141C32.7574 18.1535 33.0886 18.5034 33.0823 18.9346Z" fill="#87898E"/>
</g>
<defs>
<clipPath id="clip0_153_20153">
<rect width="40" height="22.8214" fill="white"/>
</clipPath>
</defs>
</svg>
