<svg width="40" height="40" viewBox="0 0 40 40" fill="none" xmlns="http://www.w3.org/2000/svg">
<g clip-path="url(#clip0_153_18912)">
<path d="M35.9634 19.7144C35.9353 19.1993 35.8979 18.6842 35.8698 18.1691C35.8042 17.0265 36.6003 16.1087 37.7429 16.015C38.7918 15.9308 39.7284 16.7549 39.8407 17.86C40.8803 28.1527 34.2214 37.4245 24.1161 39.5505C13.1491 41.8638 2.86579 34.8865 0.505691 24.4721C-1.7233 14.6196 3.54947 4.83265 13.018 1.30186C18.3282 -0.683623 23.601 -0.374562 28.7333 2.0511C29.829 2.5662 30.2598 3.72752 29.7822 4.74836C29.3046 5.7692 28.1339 6.19064 27.0381 5.66618C24.4345 4.42057 21.6998 3.868 18.8246 4.08341C14.5539 4.4112 10.9482 6.16255 8.1011 9.34681C4.97303 12.8308 3.67123 16.9516 4.07394 21.5969C4.6827 28.621 10.2739 34.6149 17.2418 35.7481C25.933 37.1717 33.9405 31.6554 35.6544 23.0485C35.8698 21.9528 35.9166 20.8195 36.0383 19.7144C36.0103 19.7144 35.9915 19.7144 35.9634 19.7144Z" fill="#16C3C6"/>
<path d="M20.0702 21.2502C20.1825 21.0722 20.2668 20.8943 20.3979 20.7725C25.7269 15.4342 31.0559 10.1146 36.3848 4.77628C36.928 4.23309 37.5368 3.92402 38.3141 4.07387C39.8501 4.35484 40.4869 6.15301 39.4661 7.34243C39.3537 7.47354 39.2319 7.5953 39.1102 7.71705C33.2942 13.533 27.4783 19.349 21.6623 25.165C20.5103 26.3169 19.452 26.3169 18.3094 25.1743C16.4176 23.2919 14.5352 21.4 12.6527 19.5082C11.9596 18.8152 11.8004 17.9067 12.2125 17.1106C12.84 15.9025 14.4228 15.6496 15.4249 16.633C16.8297 18.0097 18.2064 19.4145 19.6019 20.8006C19.7143 20.913 19.836 21.0254 20.0702 21.2502Z" fill="#16C3C6"/>
</g>
<defs>
<clipPath id="clip0_153_18912">
<rect width="39.9532" height="40" fill="white"/>
</clipPath>
</defs>
</svg>
