<svg width="12" height="12" viewBox="0 0 12 12" fill="none" xmlns="http://www.w3.org/2000/svg">
<path d="M1.17969 5.99995C1.17969 8.66271 3.33781 10.821 5.99992 10.821C6.25598 10.821 6.50739 10.8012 6.75263 10.7622C7.19747 11.0363 7.72131 11.1958 8.28265 11.1958C9.8918 11.1958 11.1964 9.89119 11.1964 8.2823C11.1964 7.7207 11.0374 7.19686 10.7623 6.75202C10.8012 6.50678 10.8214 6.25601 10.8214 5.99995C10.8214 3.33668 8.66332 1.17843 6.00056 1.17843C5.74464 1.17843 5.49309 1.19931 5.24786 1.23771C4.80366 0.963098 4.27982 0.804077 3.71848 0.804077C2.10933 0.804077 0.804688 2.10807 0.804688 3.71774C0.804688 4.27921 0.963708 4.8024 1.23832 5.24776C1.20043 5.49364 1.17969 5.74351 1.17969 5.99995V5.99995ZM7.06783 6.86207C6.93922 6.73964 6.7735 6.64673 6.56783 6.5823C6.36139 6.51632 6.08394 6.44712 5.73677 6.37379C5.27041 6.27225 4.88033 6.15395 4.56409 6.01735C4.24773 5.88101 3.99567 5.69441 3.80907 5.45807C3.62196 5.22031 3.52891 4.92431 3.52891 4.57354C3.52891 4.23926 3.62763 3.9399 3.8244 3.67998C4.0217 3.4189 4.30701 3.2189 4.67853 3.08011C5.04889 2.94093 5.48536 2.87147 5.98536 2.87147C6.38446 2.87147 6.73072 2.91722 7.02324 3.00962C7.31474 3.10214 7.5583 3.22444 7.75224 3.37779C7.94567 3.53127 8.08832 3.69248 8.17788 3.8622C8.26809 4.03178 8.31319 4.19815 8.31319 4.35988C8.31319 4.51052 8.25507 4.64751 8.14128 4.76696C8.02737 4.88707 7.88188 4.94789 7.71216 4.94738C7.55881 4.94738 7.43884 4.91245 7.35533 4.83758C7.27415 4.76477 7.18897 4.64982 7.09657 4.489C6.97982 4.26529 6.84051 4.09055 6.67814 3.96542C6.51989 3.84299 6.25933 3.77921 5.89618 3.77972C5.56023 3.77972 5.29193 3.84866 5.08897 3.98281C4.88484 4.11928 4.78729 4.27714 4.78677 4.46258C4.78729 4.57882 4.82054 4.67689 4.88768 4.76026C4.95585 4.8448 5.05121 4.91812 5.17299 4.98024C5.29515 5.04261 5.41938 5.09119 5.54386 5.12624C5.67015 5.16181 5.87994 5.21361 6.1708 5.28178C6.53561 5.36078 6.86706 5.44866 7.16474 5.54454C7.4619 5.64093 7.715 5.75717 7.92479 5.89519C8.13561 6.03333 8.30082 6.20923 8.4186 6.42173C8.53703 6.63436 8.59554 6.89428 8.59554 7.19982C8.59618 7.56851 8.4936 7.89944 8.28948 8.19274C8.08536 8.48642 7.786 8.71593 7.39425 8.88049C7.00198 9.04635 6.53845 9.12856 6.00288 9.12856C5.36113 9.12856 4.8302 9.01645 4.41062 8.78913C4.11306 8.62676 3.87105 8.40923 3.68562 8.13745C3.49902 7.86568 3.40495 7.59957 3.40495 7.33964C3.40495 7.18694 3.46358 7.05382 3.57685 6.94506C3.69193 6.83565 3.83948 6.78088 4.01435 6.78088C4.15752 6.78088 4.27994 6.82379 4.3802 6.90949C4.47956 6.99467 4.56293 7.11864 4.63059 7.28217C4.71229 7.47212 4.80134 7.63062 4.89567 7.75691C4.98922 7.88204 5.12105 7.98629 5.29193 8.06799C5.46113 8.14982 5.686 8.19042 5.96744 8.19042C6.35301 8.19042 6.66422 8.10756 6.90211 7.94287C7.14167 7.77714 7.25675 7.57534 7.25675 7.33127C7.25662 7.13655 7.19464 6.98217 7.06783 6.86207V6.86207Z" fill="#414042"/>
</svg>
