<svg width="16" height="16" viewBox="0 0 16 16" fill="none" xmlns="http://www.w3.org/2000/svg">
<path d="M2.98818 7.81454L5.38277 8.70823L6.30957 11.6889C6.36885 11.8798 6.60223 11.9502 6.75712 11.8236L8.09192 10.7355C8.23187 10.6215 8.43109 10.6158 8.57723 10.722L10.9847 12.4698C11.1504 12.5902 11.3852 12.4995 11.4268 12.2992L13.1904 3.81635C13.2357 3.59753 13.0208 3.41506 12.8125 3.4956L2.98547 7.28658C2.74295 7.38014 2.74501 7.72344 2.98818 7.81454ZM6.16022 8.23259L10.8399 5.35037C10.9239 5.29869 11.0105 5.41248 10.9382 5.47949L7.0762 9.06944C6.94037 9.19573 6.85287 9.36493 6.828 9.54844L6.69656 10.5234C6.67903 10.6536 6.49617 10.6665 6.46022 10.5404L5.95429 8.76261C5.89643 8.55991 5.98084 8.34328 6.16022 8.23259Z" fill="#414042"/>
</svg>
