<svg width="16" height="16" viewBox="0 0 16 16" fill="none" xmlns="http://www.w3.org/2000/svg">
<path d="M5.95109 10.0354C7.14967 11.2339 8.61372 12.1649 10.3123 12.8568C11.4917 13.3372 12.4877 12.8355 12.895 11.6243C12.9681 11.4069 12.9731 11.194 12.8945 10.9803C12.7046 10.4638 10.9042 9.15586 10.3655 9.12647C9.95238 9.10405 9.72867 9.38472 9.53949 9.66346C9.18202 10.1896 8.7288 10.1926 8.22326 9.96771C7.71462 9.74129 7.26952 9.45096 6.90251 9.08395C6.53537 8.71681 6.24503 8.27171 6.01875 7.76307C5.79375 7.25753 5.79671 6.80444 6.323 6.44684C6.60161 6.25779 6.88241 6.03408 6.85985 5.62093C6.8306 5.08227 5.52261 3.28189 5.00612 3.09194C4.79233 3.01333 4.57944 3.01836 4.36204 3.09142C3.15083 3.49877 2.64929 4.49477 3.1297 5.67415C3.82158 7.37274 4.75251 8.83678 5.95109 10.0354Z" fill="#414042"/>
<path d="M8.28742 3.69592C8.55134 3.65404 8.82247 3.64463 9.09296 3.66822C9.92672 3.74038 10.72 4.11448 11.3269 4.72131C11.9155 5.30997 12.2776 6.07118 12.3464 6.86474C12.3699 7.13575 12.3586 7.40766 12.3125 7.67248C12.2798 7.86088 12.4061 8.04026 12.5945 8.07299C12.6146 8.07647 12.6346 8.07815 12.6542 8.07815C12.8195 8.07815 12.9658 7.95946 12.995 7.79103C13.0513 7.46732 13.0653 7.13549 13.0366 6.80482C12.9538 5.84915 12.5205 4.93523 11.8168 4.23149C11.0948 3.50945 10.1488 3.06435 9.15288 2.97788C8.82621 2.94966 8.4985 2.961 8.17891 3.01164C7.99 3.04167 7.86113 3.21912 7.89103 3.40803C7.92092 3.59695 8.09824 3.72582 8.28742 3.69592Z" fill="#414042"/>
<path d="M11.4874 7.77386C11.5022 7.77566 11.5169 7.77656 11.5316 7.77656C11.7034 7.77656 11.8525 7.64873 11.8748 7.47385C11.8985 7.28648 11.9022 7.09499 11.8857 6.90478C11.8263 6.21934 11.5116 5.55993 10.9998 5.04808C10.4696 4.51792 9.77812 4.19125 9.0526 4.12836C8.84848 4.11071 8.64345 4.1147 8.44319 4.14022C8.25337 4.16444 8.11923 4.33803 8.14345 4.52772C8.16768 4.71754 8.34178 4.85156 8.53095 4.82746C8.68237 4.80813 8.83778 4.80517 8.99281 4.81857C9.55608 4.86741 10.0949 5.12282 10.5098 5.5379C10.9066 5.93468 11.1502 6.44138 11.1955 6.96458C11.2078 7.10594 11.2051 7.24782 11.1875 7.38648C11.1633 7.5763 11.2977 7.74963 11.4874 7.77386Z" fill="#414042"/>
<path d="M10.3669 7.56822C10.3748 7.56887 10.3827 7.56913 10.3907 7.56913C10.5712 7.56913 10.7236 7.42905 10.7359 7.24619C10.7413 7.16693 10.7406 7.08562 10.7335 7.00443C10.6565 6.11681 9.87356 5.35869 8.95088 5.27879C8.87563 5.27222 8.80024 5.27054 8.72679 5.27351C8.53555 5.28137 8.38697 5.44271 8.39483 5.63382C8.40282 5.82505 8.56442 5.97338 8.75527 5.96565C8.79947 5.96384 8.84521 5.965 8.89109 5.969C9.46854 6.019 9.99611 6.52067 10.0433 7.06436C10.0473 7.10998 10.0478 7.15534 10.0448 7.19915C10.0317 7.39 10.1759 7.55534 10.3669 7.56822Z" fill="#414042"/>
</svg>
