<?xml version="1.0" encoding="utf-8"?>
<!-- Generator: Adobe Illustrator 25.2.1, SVG Export Plug-In . SVG Version: 6.00 Build 0)  -->
<svg version="1.1" id="Слой_1" xmlns="http://www.w3.org/2000/svg" xmlns:xlink="http://www.w3.org/1999/xlink" x="0px" y="0px"
	 viewBox="0 0 232.4 36.9" style="enable-background:new 0 0 232.4 36.9;" xml:space="preserve">
<style type="text/css">
	.st0{fill:#414042;}
	.st1{fill:#16C3C6;}
</style>
<g>
	<g>
		<path class="st0" d="M56.2,24.7l1.9-2.6c1.4,1.4,3.3,2.1,5.4,2.1c2.1,0,3.3-0.7,3.3-2c0-1.2-1.2-1.5-3.5-2.2
			c-3-0.9-6.4-1.9-6.4-5.4c0-3.1,2.6-5,6.7-5c2.4,0,4.5,0.7,6.4,2.1L68,14.3c-1.3-1-2.9-1.6-4.7-1.6c-1.9,0-3.1,0.7-3.1,1.8
			c0,1.1,1.3,1.7,3.8,2.3c3.2,0.9,6.3,1.9,6.3,5.1c0,3.3-2.6,5.2-6.9,5.2C60.6,27.2,58,26.3,56.2,24.7z"/>
		<path class="st0" d="M88,9.9l-6.2,17h-4.3l-6.2-17h3.7l4.7,13.7l4.7-13.7H88z"/>
		<path class="st0" d="M90.8,9.9h3.4v17h-3.4V9.9z"/>
		<path class="st0" d="M112.2,13.1h-5.9v13.9h-3.4V13.1h-5.9V9.9h15.2V13.1z"/>
		<path class="st0" d="M127.9,14.9c0,3-2.2,5-5.5,5h-5.3v7h-1.5v-17h6.8C125.7,9.9,127.9,11.9,127.9,14.9z M126.4,14.9
			c0-2.3-1.5-3.7-4.1-3.7h-5.2v7.4h5.2C124.9,18.7,126.4,17.3,126.4,14.9z"/>
		<path class="st0" d="M140.6,22.3h-9l-2,4.7h-1.5l7.2-17h1.7l7.2,17h-1.6L140.6,22.3z M140,20.9l-3.9-9.4l-4,9.4H140z"/>
		<path class="st0" d="M158.7,26.9l-4.4-7.1h-0.4H149v7.1h-1.5v-17h6.4c3.3,0,5.5,2,5.5,5c0,2.4-1.3,4.1-3.5,4.7l4.6,7.3H158.7z
			 M149,18.6h4.8c2.6,0,4.1-1.4,4.1-3.7c0-2.2-1.6-3.7-4.1-3.7H149V18.6z"/>
		<path class="st0" d="M176,11.3h-6.5v15.6h-1.5V11.3h-6.5V9.9H176V11.3z"/>
		<path class="st0" d="M177.1,24.5l0.9-1c1.6,1.5,3.4,2.4,5.6,2.4c3,0,4.9-1.3,4.9-3.2c0-1.6-1.2-2.6-4.6-3.6c-4.5-1.3-6-2.6-6-4.9
			c0-2.7,2.2-4.4,5.9-4.4c2.1,0,4.1,0.7,5.7,2l-0.9,1.1c-1.4-1.2-3.4-1.8-4.8-1.8c-2.8,0-4.5,1.2-4.5,3.1c0,1.6,1.1,2.4,4.8,3.5
			c4.3,1.3,5.9,2.6,5.9,4.9c0,2.8-2.6,4.7-6.5,4.7C181.1,27.2,178.8,26.2,177.1,24.5z"/>
	</g>
	<g>
		<path class="st1" d="M30.4,32.9l2.7-1.5L32.5,29c0.7-0.6,1.3-1.2,1.9-1.9l2.3,0.6l1.5-2.7l-1.7-1.7c0.3-0.8,0.6-1.7,0.7-2.6
			l2.3-0.7v-3.1l-2.3-0.7c-0.1-0.9-0.4-1.8-0.7-2.6l1.7-1.7l-1.5-2.7l-2.3,0.6c-0.6-0.7-1.2-1.3-1.9-1.9l0.6-2.3L30.4,4l-1.7,1.7
			C27.8,5.4,26.9,5.1,26,5l-0.7-2.3h-3.1L21.6,5c-0.9,0.1-1.8,0.4-2.6,0.7L17.3,4l-2.7,1.5l0.6,2.3c-0.7,0.6-1.3,1.2-1.9,1.9
			l-2.3-0.6l-1.5,2.7l1.7,1.7c-0.3,0.8-0.6,1.7-0.7,2.6l-2.3,0.7V20l2.3,0.7c0.1,0.9,0.4,1.8,0.7,2.6L9.4,25l1.5,2.7l2.3-0.6
			c0.6,0.7,1.2,1.3,1.9,1.9l-0.6,2.3l2.7,1.5l1.7-1.7c0.8,0.3,1.7,0.6,2.6,0.7l0.7,2.3h3.1l0.7-2.3c0.9-0.1,1.8-0.4,2.6-0.7
			L30.4,32.9z M23.8,28.5c-5.6,0-10.1-4.5-10.1-10.1c0-5.6,4.5-10.1,10.1-10.1c5.6,0,10.1,4.5,10.1,10.1
			C33.9,24,29.4,28.5,23.8,28.5z"/>
		<path class="st1" d="M47.7,10.1c-5.6,0-10.1-4.5-10.1-10.1h-2.3H34h-2.1v1.5l2.3,0.7c0.1,0.9,0.4,1.8,0.7,2.6l-1.7,1.7l1.5,2.7
			l2.3-0.6c0.6,0.7,1.2,1.3,1.9,1.9l-0.6,2.3l2.7,1.5l1.7-1.7c0.8,0.3,1.7,0.6,2.6,0.7l0.7,2.3h1.5l0-2.1c0,0,0,0,0,0V10.1z"/>
		<path class="st1" d="M12.7,32l1.7-1.7l-1.5-2.7l-2.3,0.6c-0.6-0.7-1.2-1.3-1.9-1.9L9.2,24l-2.7-1.5l-1.7,1.7
			c-0.8-0.3-1.7-0.6-2.6-0.7l-0.7-2.3H0l0,2.1c0,0,0,0,0,0v3.6c5.6,0,10.1,4.5,10.1,10.1h2.3h1.2h2.1v-1.5l-2.3-0.7
			C13.3,33.7,13.1,32.9,12.7,32z"/>
		<path class="st1" d="M46.1,21.1l-0.7,2.3c-0.9,0.1-1.8,0.4-2.6,0.7l-1.7-1.7L38.4,24l0.6,2.3c-0.7,0.6-1.3,1.2-1.9,1.9l-2.3-0.6
			l-1.5,2.7l1.7,1.7c-0.3,0.8-0.6,1.7-0.7,2.6l-2.3,0.7v1.5H34h1.2h2.3c0-5.6,4.5-10.1,10.1-10.1v-3.6c0,0,0,0,0,0l0-2.1H46.1z"/>
		<path class="st1" d="M1.5,15.8l0.7-2.3c0.9-0.1,1.8-0.4,2.6-0.7l1.7,1.7l2.7-1.5l-0.6-2.3C9.3,10,10,9.3,10.5,8.6l2.3,0.6l1.5-2.7
			l-1.7-1.7c0.3-0.8,0.6-1.7,0.7-2.6l2.3-0.7V0h-2.1h-1.2h-2.3c0,5.6-4.5,10.1-10.1,10.1v3.6c0,0,0,0,0,0l0,2.1H1.5z"/>
		<path class="st1" d="M31.9,18.7c-0.1-0.2-0.2-0.3-0.3-0.5c0.1-0.1,0.2-0.2,0.4-0.3c-0.1,0-0.3,0-0.4-0.1c0.2,0,0.3-0.2,0.3-0.3
			c0-0.2,0-0.3-0.1-0.5c-0.3,0.1-0.7-0.1-0.9-0.3c-0.1,0-0.1,0.1-0.2,0.1c-0.2-0.2-0.5-0.3-0.8-0.2c-0.1,0-0.2,0-0.3-0.1
			c-0.1-0.1-0.1-0.2-0.2-0.3c-0.2-0.2-0.6,0-0.9,0.2c-0.3-0.2-0.6-0.4-0.8-0.2c-0.2-0.1-0.1-0.4-0.2-0.7c-0.1-0.4-0.6-0.4-1-0.5
			c0-0.2-0.1-0.3-0.1-0.5c0.2,0,0.2-0.3,0.1-0.4c-0.1-0.2-0.3-0.5-0.6-0.6c-0.4-0.1-0.7,0.3-1.1,0.1c0.1,0.1,0,0.3-0.2,0.3
			c-0.1,0-0.3,0-0.4,0c-0.6-0.1-1.1,0.6-0.9,1.1c-0.3-0.3-0.7-0.4-1.1-0.1c0-0.1,0-0.3-0.2-0.3c-0.1,0-0.3,0.1-0.3,0.2
			c-0.1-0.1-0.3-0.2-0.4-0.3c-0.2,0.1-0.5,0.1-0.8,0c-0.7-0.4-1.5-0.6-2.3-0.5c-0.1,0-0.2,0-0.3,0.1c-0.1,0.1-0.1,0.2-0.2,0.2
			c-0.1,0.1-0.4-0.1-0.5,0c-0.1,0.1,0,0.2,0,0.2c0.1,0.3,0.2,0.6,0.3,0.9c0,0.1,0,0.1,0,0.2c0,0.1-0.1,0.2-0.2,0.3
			c-0.3,0.2-0.6,0.4-0.9,0.7c-0.2,0.3-0.4,0.7-0.2,1c-0.1,0-0.1-0.1-0.2-0.1c-0.2,0.2-0.3,0.4-0.4,0.6c-0.1,0.2,0,0.5,0.2,0.7
			c0.1,0.1,0.4,0.2,0.3,0.3c0.1-0.1,0.2-0.1,0.3-0.2c0.4,0.4,1.1,0.1,1.4,0.5c0,0,0.1,0.1,0.1,0.1c0.1,0,0.2-0.1,0.3-0.2
			c0.2-0.1,0.5,0,0.7,0c0.2,0,0.3-0.2,0.4-0.3c0.5-0.4,1.4-0.3,1.8,0.2c0-0.1,0.2-0.1,0.3,0c0.1,0.1,0.2,0.2,0.3,0.1
			c0,0.2-0.1,0.4-0.1,0.6c0,0.2,0.2,0.4,0.4,0.4c-0.1,0.1-0.1,0.3,0.1,0.4c0.1,0.1,0.3,0.2,0.3,0.4c0,0.1,0,0.3,0.1,0.3
			c-0.3,0-0.6-0.1-0.8-0.2c-0.1-0.1-0.2,0.1-0.2,0.2c0,0.1,0,0.2,0,0.4c-0.1,0.3-0.5,0.5-0.5,0.8c-0.1-0.1-0.2,0-0.2,0.1
			c-0.1,0.2,0.2,0.4,0.4,0.3c0.2,0,0.4-0.2,0.6-0.2c0.2,0,0.5,0.1,0.4,0.3c0.1-0.2,0.1-0.4-0.1-0.6c0.2,0,0.3-0.1,0.4-0.2
			c0.4-0.3,0.6-0.7,0.8-1.1c0.3-0.1,0.6-0.1,0.9-0.1c0,0.1,0.1,0.2,0.2,0.3c-0.1,0-0.1,0.1-0.2,0.1c0.2,0.3,0.7,0.3,1,0.3
			c0.2,0,0.3,0,0.5,0c0,0,0.2,0,0.2,0c0,0,0,0.2,0.1,0.2c-0.4,0.1-0.7,0.3-1,0.5c-0.1,0.1-0.2,0.2-0.1,0.3c0,0,0.1,0,0.1,0
			c0.1,0,0.1,0,0.2,0c0.2,0,0.5,0.1,0.6,0.3c0.2,0.2,0.2,0.5,0,0.6c-0.1,0.2,0.2,0.4,0.5,0.4c0.2-0.1,0.4-0.2,0.6-0.4
			c0.2-0.2,0.4-0.3,0.6-0.3c0.1-0.1,0.2-0.2,0.3-0.3c0,0,0.1-0.1,0.1-0.1c0.1,0,0.2,0,0.2,0.1c0.2,0.1,0.5,0.1,0.6-0.1
			c0-0.2,0.1-0.4,0.2-0.5c-0.3-0.1-0.6-0.1-0.9,0c0,0.1-0.2,0.2-0.3,0.1c-0.1,0-0.2-0.1-0.3-0.2c-0.1-0.2-0.2-0.3-0.3-0.5
			c0-0.1,0-0.1,0-0.2c0-0.1,0.1-0.2,0.2-0.2c0.3-0.3,0.7-0.5,1.1-0.6c0.5-0.2,1-0.4,1.5-0.7c0.1-0.1,0.3-0.2,0.3-0.3
			c0-0.1-0.1-0.2,0-0.4c0-0.1,0.2-0.2,0.3-0.2c0.1-0.1,0.2-0.2,0.1-0.3c0.4,0.1,1-0.1,1-0.5C31.9,18.8,31.9,18.8,31.9,18.7z"/>
	</g>
	<g>
		<path class="st1" d="M193.4,25.2L193.4,25.2c0.4,0,0.8,0.4,0.8,0.8v0c0,0.4-0.4,0.8-0.8,0.8h0c-0.4,0-0.8-0.4-0.8-0.8v0
			C192.6,25.6,192.9,25.2,193.4,25.2z"/>
		<path class="st1" d="M195.1,24.1c0-1.7,1.1-2.8,2.8-2.8c1.2,0,2.2,0.6,2.5,1.6l-1.3,0.4c-0.2-0.6-0.6-0.9-1.3-0.9
			c-0.9,0-1.4,0.7-1.4,1.7s0.5,1.7,1.4,1.7c0.6,0,1.1-0.3,1.3-0.9l1.2,0.4c-0.3,1-1.3,1.6-2.5,1.6C196.3,26.9,195.1,25.8,195.1,24.1
			z"/>
		<path class="st1" d="M201,24.1c0-1.7,1.1-2.8,2.8-2.8c1.7,0,2.8,1.1,2.8,2.8c0,1.7-1.1,2.8-2.8,2.8C202.1,26.9,201,25.8,201,24.1z
			 M205.3,24.1c0-1.1-0.6-1.7-1.5-1.7s-1.5,0.7-1.5,1.7c0,1.1,0.6,1.7,1.5,1.7S205.3,25.2,205.3,24.1z"/>
		<path class="st1" d="M216.4,23.4v3.5h-1.3v-3.2c0-0.8-0.3-1.3-1-1.3c-0.8,0-1.3,0.5-1.3,1.3v3.1h-1.3v-3.2c0-0.8-0.3-1.3-1-1.3
			c-0.8,0-1.3,0.5-1.3,1.3v3.1h-1.3v-5.5h1.2l0.1,0.8c0.4-0.5,1-0.9,1.8-0.9s1.4,0.4,1.7,1c0.4-0.6,1.1-1,1.9-1
			C215.6,21.3,216.4,22.1,216.4,23.4z"/>
		<path class="st1" d="M218.7,25.2L218.7,25.2c0.4,0,0.8,0.4,0.8,0.8v0c0,0.4-0.4,0.8-0.8,0.8h0c-0.4,0-0.8-0.4-0.8-0.8v0
			C217.9,25.6,218.2,25.2,218.7,25.2z"/>
		<path class="st1" d="M226,21.4v5.5h-1.2l-0.1-0.8c-0.4,0.5-1.1,0.9-1.9,0.9c-1.2,0-2-0.8-2-2.1v-3.5h1.3v3.2
			c0,0.8,0.4,1.3,1.1,1.3c0.8,0,1.4-0.5,1.4-1.3v-3.1H226z"/>
		<path class="st1" d="M232.4,25.7v1.1c-0.1,0-0.2,0-0.5,0c-0.7,0-1-0.3-1.1-0.8c-0.4,0.5-1.1,0.9-1.9,0.9c-1.1,0-1.8-0.6-1.8-1.6
			c0-1.4,1.3-1.7,2.4-1.8c0.7-0.1,1.2-0.2,1.2-0.5c0-0.4-0.4-0.6-1.1-0.6c-0.6,0-1.1,0.2-1.5,0.7l-0.8-0.8c0.6-0.6,1.4-0.9,2.4-0.9
			c1.4,0,2.2,0.7,2.2,1.8v2.3c0,0.2,0.1,0.3,0.3,0.3H232.4z M230.6,24.7v-0.6c-0.2,0.1-0.5,0.2-1,0.3c-0.6,0.1-1.2,0.2-1.2,0.8
			c0,0.4,0.3,0.7,0.8,0.7C230,25.9,230.6,25.4,230.6,24.7z"/>
	</g>
</g>
</svg>
