<svg width="16" height="16" viewBox="0 0 16 16" fill="none" xmlns="http://www.w3.org/2000/svg">
<path d="M3.17969 8.00008C3.17969 10.6628 5.33781 12.8211 7.99992 12.8211C8.25598 12.8211 8.50739 12.8014 8.75262 12.7623C9.19747 13.0364 9.72131 13.196 10.2827 13.196C11.8918 13.196 13.1964 11.8913 13.1964 10.2824C13.1964 9.72082 13.0374 9.19698 12.7623 8.75214C12.8012 8.50691 12.8214 8.25613 12.8214 8.00008C12.8214 5.3368 10.6633 3.17855 8.00056 3.17855C7.74464 3.17855 7.49309 3.19943 7.24786 3.23783C6.80366 2.96322 6.27982 2.8042 5.71848 2.8042C4.10933 2.8042 2.80469 4.10819 2.80469 5.71786C2.80469 6.27933 2.96371 6.80252 3.23832 7.24788C3.20043 7.49376 3.17969 7.74363 3.17969 8.00008ZM9.06783 8.86219C8.93922 8.73977 8.7735 8.64685 8.56783 8.58242C8.36139 8.51644 8.08394 8.44724 7.73677 8.37392C7.27041 8.27237 6.88033 8.15407 6.56409 8.01747C6.24773 7.88113 5.99567 7.69453 5.80907 7.45819C5.62196 7.22044 5.52891 6.92443 5.52891 6.57366C5.52891 6.23938 5.62763 5.94002 5.8244 5.6801C6.0217 5.41902 6.30701 5.21902 6.67853 5.08023C7.04889 4.94106 7.48536 4.8716 7.98536 4.8716C8.38446 4.8716 8.73072 4.91734 9.02324 5.00974C9.31474 5.10227 9.5583 5.22456 9.75224 5.37791C9.94567 5.53139 10.0883 5.6926 10.1779 5.86232C10.2681 6.03191 10.3132 6.19827 10.3132 6.36C10.3132 6.51064 10.2551 6.64763 10.1413 6.76709C10.0274 6.88719 9.88188 6.94801 9.71216 6.9475C9.55881 6.9475 9.43884 6.91258 9.35533 6.8377C9.27415 6.7649 9.18897 6.64995 9.09657 6.48912C8.97982 6.26541 8.84051 6.09067 8.67814 5.96554C8.51989 5.84312 8.25933 5.77933 7.89618 5.77984C7.56023 5.77984 7.29193 5.84879 7.08897 5.98294C6.88484 6.11941 6.78729 6.27727 6.78677 6.4627C6.78729 6.57894 6.82054 6.67701 6.88768 6.76039C6.95585 6.84492 7.05121 6.91825 7.17299 6.98036C7.29515 7.04273 7.41938 7.09131 7.54386 7.12636C7.67015 7.16193 7.87994 7.21374 8.1708 7.28191C8.53561 7.3609 8.86706 7.44879 9.16474 7.54466C9.4619 7.64106 9.715 7.75729 9.92479 7.89531C10.1356 8.03345 10.3008 8.20935 10.4186 8.42185C10.537 8.63448 10.5955 8.89441 10.5955 9.19995C10.5962 9.56863 10.4936 9.89956 10.2895 10.1929C10.0854 10.4865 9.786 10.7161 9.39425 10.8806C9.00198 11.0465 8.53845 11.1287 8.00288 11.1287C7.36113 11.1287 6.8302 11.0166 6.41061 10.7893C6.11306 10.6269 5.87105 10.4094 5.68562 10.1376C5.49902 9.8658 5.40495 9.59969 5.40495 9.33977C5.40495 9.18706 5.46358 9.05394 5.57685 8.94518C5.69193 8.83577 5.83948 8.781 6.01435 8.781C6.15752 8.781 6.27994 8.82392 6.3802 8.90961C6.47956 8.99479 6.56293 9.11876 6.63059 9.28229C6.71229 9.47224 6.80134 9.63075 6.89567 9.75703C6.98922 9.88216 7.12105 9.98642 7.29193 10.0681C7.46113 10.1499 7.686 10.1905 7.96744 10.1905C8.35301 10.1905 8.66422 10.1077 8.90211 9.94299C9.14167 9.77727 9.25675 9.57546 9.25675 9.33139C9.25662 9.13667 9.19464 8.98229 9.06783 8.86219Z" fill="white"/>
</svg>
