<svg width="16" height="16" viewBox="0 0 16 16" fill="none" xmlns="http://www.w3.org/2000/svg">
<path d="M2.98818 7.81442L5.38277 8.70811L6.30957 11.6888C6.36885 11.8796 6.60223 11.9501 6.75712 11.8234L8.09192 10.7354C8.23187 10.6214 8.43109 10.6157 8.57723 10.7219L10.9847 12.4697C11.1504 12.5901 11.3852 12.4993 11.4268 12.2991L13.1904 3.81623C13.2357 3.59741 13.0208 3.41494 12.8125 3.49548L2.98547 7.28646C2.74295 7.38001 2.74501 7.72331 2.98818 7.81442ZM6.16022 8.23246L10.8399 5.35025C10.9239 5.29857 11.0105 5.41236 10.9382 5.47937L7.0762 9.06932C6.94037 9.19561 6.85287 9.36481 6.828 9.54831L6.69656 10.5233C6.67903 10.6535 6.49617 10.6664 6.46022 10.5403L5.95429 8.76249C5.89643 8.55978 5.98084 8.34316 6.16022 8.23246Z" fill="white"/>
</svg>
