<svg width="30" height="26" viewBox="0 0 30 26" fill="none" xmlns="http://www.w3.org/2000/svg">
<g>
<path fill-rule="evenodd" clip-rule="evenodd" d="M15.0497 0C13.8136 0 12.7624 0.698024 12.3925 1.66311C12.3272 1.65063 12.2594 1.64404 12.1898 1.64404H5.63238C5.11528 1.64404 4.69561 2.00695 4.69561 2.45591C4.69561 2.50643 4.70093 2.55586 4.7111 2.60381L0.0754762 15.9662C0.0434945 16.0578 0.0311324 16.1505 0.0362874 16.241L0.0360952 16.2576C0.0360952 19.0277 2.4464 21.1166 5.64359 21.1166C8.83984 21.1166 11.2511 19.0277 11.252 16.2576C11.252 16.2465 11.2518 16.2356 11.2513 16.2246C11.2543 16.1394 11.2417 16.0523 11.2118 15.9661L6.80831 3.26777H12.1898C12.267 3.26777 12.3421 3.25967 12.4139 3.2444C12.6907 3.91391 13.2974 4.44834 14.0633 4.69932V21.2658L10.8492 22.5975C10.5232 22.7322 10.3162 23.0172 10.3162 23.3298V25.1881C10.3162 25.6371 10.7359 26 11.253 26H18.7471C19.2642 26 19.6839 25.6371 19.6839 25.1881V23.3298C19.6839 23.0131 19.4722 22.7265 19.1415 22.5934L15.9368 21.3043V4.73033C16.7419 4.49702 17.3853 3.9552 17.6792 3.26777H23.1917L18.7864 15.9662C18.7543 16.0582 18.742 16.1513 18.7473 16.2421L18.7471 16.2576C18.7471 19.0277 21.1584 21.1166 24.3565 21.1166C27.5537 21.1166 29.9649 19.0277 29.9649 16.2576L29.9647 16.2379L29.9642 16.2244C29.9671 16.1392 29.9545 16.0522 29.9247 15.9661L25.289 2.60366C25.2992 2.55576 25.3045 2.50638 25.3045 2.45591C25.3045 2.00695 24.8848 1.64404 24.3677 1.64404H17.703C17.3261 0.688845 16.2792 0 15.0497 0ZM14.8463 22.7416C14.8963 22.7488 14.9477 22.7525 15.0001 22.7525C15.0268 22.7525 15.0532 22.7515 15.0794 22.7496L17.8103 23.8485V24.3763H12.1897V23.842L14.8463 22.7416ZM15.9368 2.45591C15.9368 2.39204 15.9453 2.32993 15.9613 2.27034C15.877 1.90183 15.5003 1.62373 15.0497 1.62373C14.5392 1.62373 14.1242 1.98339 14.1242 2.42667C14.1242 2.87076 14.5392 3.23123 15.0497 3.23123C15.4885 3.23123 15.8572 2.96693 15.9541 2.61216C15.9427 2.56161 15.9368 2.50937 15.9368 2.45591ZM5.64441 5.55216L2.21218 15.4457H9.07526L5.64441 5.55216ZM2.01361 17.0694C2.39769 18.5121 3.80659 19.4929 5.64359 19.4929C7.48059 19.4929 8.88949 18.5121 9.27357 17.0694H2.01361ZM27.788 15.4457L24.3556 5.55158L20.9231 15.4457H27.788ZM24.3565 19.4929C22.5186 19.4929 21.1087 18.5121 20.7246 17.0694H27.9865C27.6024 18.5121 26.1935 19.4929 24.3565 19.4929Z" fill="white"/>
</g>
</svg>
