<svg width="18" height="18" viewBox="0 0 18 18" fill="none" xmlns="http://www.w3.org/2000/svg">
<path d="M3.69141 1.61719H14.3086C16.3441 1.61719 18 3.2731 18 5.30859V11.0099C18 12.6341 16.9336 14.0488 15.3884 14.5015L13.6056 16.2845C13.5066 16.3834 13.3726 16.439 13.2326 16.439C13.0928 16.439 12.9586 16.3834 12.8598 16.2845L11.2243 14.6489H3.69141C1.65591 14.6489 0 12.993 0 10.9575V5.30859C0 3.2731 1.65591 1.61719 3.69141 1.61719ZM1.05469 10.9575C1.05469 12.4114 2.2375 13.5942 3.69141 13.5942H11.4427C11.5825 13.5942 11.7166 13.6498 11.8155 13.7487L13.2326 15.1658L14.7419 13.6566C14.8096 13.5889 14.8944 13.5408 14.9874 13.5177C16.1402 13.2308 16.9453 12.1996 16.9453 11.0099V5.30859C16.9453 3.85469 15.7625 2.67188 14.3086 2.67188H3.69141C2.2375 2.67188 1.05469 3.85469 1.05469 5.30859V10.9575Z" fill="#909090"/>
</svg>
