<svg width="20" height="20" viewBox="0 0 20 20" fill="none" xmlns="http://www.w3.org/2000/svg">
<g clip-path="url(#clip0_123_6822)">
<path d="M13.7493 2.5C12.2993 2.5 10.9077 3.175 9.99935 4.24167C9.09102 3.175 7.69935 2.5 6.24935 2.5C3.68268 2.5 1.66602 4.51667 1.66602 7.08333C1.66602 10.2333 4.49935 12.8 8.79102 16.7L9.99935 17.7917L11.2077 16.6917C15.4993 12.8 18.3327 10.2333 18.3327 7.08333C18.3327 4.51667 16.316 2.5 13.7493 2.5ZM10.0827 15.4583L9.99935 15.5417L9.91602 15.4583C5.94935 11.8667 3.33268 9.49167 3.33268 7.08333C3.33268 5.41667 4.58268 4.16667 6.24935 4.16667C7.53268 4.16667 8.78268 4.99167 9.22435 6.13333H10.7827C11.216 4.99167 12.466 4.16667 13.7493 4.16667C15.416 4.16667 16.666 5.41667 16.666 7.08333C16.666 9.49167 14.0493 11.8667 10.0827 15.4583Z" fill="#2D2D2D" fill-opacity="0.6"/>
</g>
<defs>
<clipPath id="clip0_123_6822">
<rect width="20" height="20" fill="white"/>
</clipPath>
</defs>
</svg>
