<svg width="23" height="23" viewBox="0 0 23 23" fill="none" xmlns="http://www.w3.org/2000/svg">
<path d="M20.125 11.5C20.125 6.74403 16.2556 2.875 11.5 2.875C10.6357 2.875 9.78219 3.00258 8.95886 3.25558C8.40363 3.00581 7.79736 2.875 7.1875 2.875C4.80952 2.875 2.875 4.80952 2.875 7.1875C2.875 7.79736 3.00581 8.40363 3.25558 8.95886C3.00258 9.78219 2.875 10.6357 2.875 11.5C2.875 16.256 6.74403 20.125 11.5 20.125C12.3643 20.125 13.2178 19.9971 14.0411 19.7444C14.5964 19.9942 15.203 20.125 15.8125 20.125C18.1905 20.125 20.125 18.1905 20.125 15.8125C20.125 15.203 19.9942 14.5967 19.7444 14.0415C19.9974 13.2182 20.125 12.3647 20.125 11.5ZM18.3274 14.4174C18.3314 14.4253 18.3353 14.4329 18.3393 14.4408C18.5671 14.8609 18.6875 15.3352 18.6875 15.8125C18.6875 17.3977 17.3977 18.6875 15.8125 18.6875C15.3349 18.6875 14.8609 18.5671 14.4411 18.3396C14.3635 18.2976 14.2769 18.2703 14.1888 18.2588C14.159 18.2548 14.1285 18.2527 14.0976 18.2527C14.0968 18.2527 14.0961 18.2527 14.0961 18.2527C14.0954 18.2527 14.0943 18.2527 14.0936 18.2527H14.0933C14.0929 18.2527 14.0929 18.2527 14.0925 18.2527C14.0925 18.2527 14.0922 18.2527 14.0918 18.2527C14.0918 18.2527 14.0918 18.2527 14.0915 18.2527C14.0063 18.253 13.9243 18.2681 13.8485 18.2961C13.0917 18.5556 12.3014 18.6875 11.5 18.6875C7.53681 18.6875 4.3125 15.4632 4.3125 11.5C4.3125 10.6946 4.44547 9.90042 4.70817 9.13962C4.7283 9.08105 4.74088 9.01852 4.74555 8.95598C4.74698 8.93909 4.7477 8.92184 4.7477 8.90459C4.7477 8.90459 4.7477 8.90459 4.7477 8.90423C4.7477 8.90388 4.7477 8.90352 4.7477 8.90316C4.7477 8.90316 4.7477 8.90316 4.7477 8.9028C4.7477 8.90208 4.7477 8.90136 4.7477 8.90028C4.7477 8.89956 4.7477 8.89956 4.7477 8.89884C4.74734 8.78528 4.72039 8.67783 4.67295 8.58259C4.669 8.57505 4.66505 8.56714 4.66073 8.55923C4.43289 8.13948 4.3125 7.66511 4.3125 7.1875C4.3125 5.6023 5.6023 4.3125 7.1875 4.3125C7.66511 4.3125 8.13948 4.43289 8.55888 4.66038C8.63434 4.70134 8.71844 4.7283 8.80433 4.74016C8.83631 4.74483 8.86902 4.74698 8.90208 4.74734H8.90352H8.90495C8.90495 4.74734 8.90603 4.74734 8.90639 4.74734C8.90675 4.74734 8.90675 4.74734 8.90711 4.74734H8.90783C8.99336 4.74698 9.0753 4.73189 9.15113 4.70386C9.90869 4.44439 10.699 4.3125 11.5 4.3125C15.4632 4.3125 18.6875 7.53681 18.6875 11.5C18.6875 12.3007 18.5563 13.0895 18.2972 13.8449C18.2688 13.9218 18.253 14.0048 18.2527 14.0918V14.0922V14.0933C18.2527 14.0929 18.2527 14.094 18.2527 14.0947V14.0983V14.0997V14.1012C18.253 14.2151 18.28 14.3222 18.3274 14.4174Z" fill="#0C7A3E"/>
<path d="M11.5 8.625C12.2791 8.625 12.9375 9.11878 12.9375 9.70312C12.9375 10.0999 13.2595 10.4219 13.6562 10.4219C14.053 10.4219 14.375 10.0999 14.375 9.70312C14.375 8.31594 13.0852 7.1875 11.5 7.1875C9.9148 7.1875 8.625 8.31594 8.625 9.70312C8.625 11.0903 9.9148 12.2188 11.5 12.2188C12.2791 12.2188 12.9375 12.7125 12.9375 13.2969C12.9375 13.8812 12.2791 14.375 11.5 14.375C10.7209 14.375 10.0625 13.8812 10.0625 13.2969C10.0625 12.9001 9.7405 12.5781 9.34375 12.5781C8.947 12.5781 8.625 12.9001 8.625 13.2969C8.625 14.6841 9.9148 15.8125 11.5 15.8125C13.0852 15.8125 14.375 14.6841 14.375 13.2969C14.375 11.9097 13.0852 10.7812 11.5 10.7812C10.7209 10.7812 10.0625 10.2875 10.0625 9.70312C10.0625 9.11878 10.7209 8.625 11.5 8.625Z" fill="#0C7A3E"/>
</svg>
