<svg width="18" height="18" viewBox="0 0 18 18" fill="none" xmlns="http://www.w3.org/2000/svg">
<path d="M9.00002 0C13.9706 0 18 4.02943 18 8.99998C18 13.9705 13.9706 18 9.00002 18C4.02947 18 3.8147e-05 13.9705 3.8147e-05 8.99998C0.00531197 4.03165 4.03165 0.0053111 9.00002 0ZM9.00002 16.7143C13.2605 16.7143 16.7143 13.2605 16.7143 8.99998C16.7143 4.7395 13.2605 1.2857 9.00002 1.2857C4.73954 1.2857 1.28574 4.7395 1.28574 8.99998C1.29033 13.2586 4.74142 16.7097 9.00002 16.7143Z" fill="#0C7A3E"/>
<path d="M8.99994 3.21423C9.35499 3.21423 9.6428 3.50205 9.6428 3.8571V8.35711H14.1428C14.4978 8.35711 14.7856 8.64493 14.7856 8.99998C14.7856 9.35503 14.4978 9.64281 14.1428 9.64281H8.99994C8.64488 9.64281 8.35707 9.355 8.35707 8.99994V3.8571C8.35707 3.50205 8.64488 3.21423 8.99994 3.21423Z" fill="#0C7A3E"/>
</svg>
